%FSLAX24Y24*%
%MOIN*%
G70*
G01*
G75*
G04 Layer_Color=8421504*
%ADD10C,0.0080*%
%ADD11R,0.0300X0.0300*%
%ADD12R,0.0200X0.0250*%
%ADD13R,0.0300X0.0300*%
%ADD14R,0.0250X0.0200*%
%ADD15O,0.0118X0.0335*%
%ADD16O,0.0335X0.0118*%
%ADD17R,0.1457X0.1457*%
%ADD18R,0.0433X0.0472*%
%ADD19R,0.0709X0.0394*%
%ADD20C,0.0100*%
%ADD21C,0.0060*%
%ADD22C,0.0300*%
%ADD23C,0.0320*%
%ADD24C,0.0240*%
%ADD25C,0.0098*%
%ADD26C,0.0050*%
%ADD27C,0.0079*%
%ADD28C,0.0043*%
%ADD29C,0.0030*%
D11*
X3893Y2746D02*
D03*
X4433Y2746D02*
D03*
X5310Y3316D02*
D03*
X4770Y3316D02*
D03*
D12*
X4883Y2746D02*
D03*
X4883Y2246D02*
D03*
X4555Y5416D02*
D03*
X4555Y4916D02*
D03*
X2451Y2232D02*
D03*
X2451Y2732D02*
D03*
X1705Y2796D02*
D03*
X1705Y3296D02*
D03*
X1355Y4246D02*
D03*
X1355Y4746D02*
D03*
X1705Y3696D02*
D03*
X1705Y4196D02*
D03*
X1705Y996D02*
D03*
X1705Y1496D02*
D03*
X1705Y2396D02*
D03*
X1705Y1896D02*
D03*
X2831Y2226D02*
D03*
X2831Y2726D02*
D03*
X1205Y5146D02*
D03*
X1205Y5646D02*
D03*
X1555Y5146D02*
D03*
X1555Y5646D02*
D03*
X2670Y1393D02*
D03*
X2670Y893D02*
D03*
X4280Y883D02*
D03*
X4280Y1383D02*
D03*
D13*
X4883Y1226D02*
D03*
X4883Y1766D02*
D03*
D14*
X4761Y3716D02*
D03*
X5261Y3716D02*
D03*
X6651Y2336D02*
D03*
X6151Y2336D02*
D03*
X6161Y4216D02*
D03*
X6661Y4216D02*
D03*
X4761Y4056D02*
D03*
X5261Y4056D02*
D03*
D15*
X3894Y3181D02*
D03*
X3697Y3181D02*
D03*
X3500Y3181D02*
D03*
X3303Y3181D02*
D03*
X3107Y3181D02*
D03*
X2910Y3181D02*
D03*
X2713Y3181D02*
D03*
X2516Y3181D02*
D03*
X2516Y5111D02*
D03*
X2713Y5111D02*
D03*
X2910Y5111D02*
D03*
X3107Y5111D02*
D03*
X3303Y5111D02*
D03*
X3500Y5111D02*
D03*
X3697Y5111D02*
D03*
X3894Y5111D02*
D03*
D16*
X2240Y3457D02*
D03*
X2240Y3654D02*
D03*
X2240Y3851D02*
D03*
X2240Y4048D02*
D03*
X2240Y4244D02*
D03*
X2240Y4441D02*
D03*
X2240Y4638D02*
D03*
X2240Y4835D02*
D03*
X4170Y4835D02*
D03*
X4170Y4638D02*
D03*
X4170Y4441D02*
D03*
X4170Y4244D02*
D03*
X4170Y4048D02*
D03*
X4170Y3851D02*
D03*
X4170Y3654D02*
D03*
X4170Y3457D02*
D03*
D17*
X3205Y4146D02*
D03*
D18*
X3831Y1610D02*
D03*
X3131Y1610D02*
D03*
X3831Y670D02*
D03*
X3129Y670D02*
D03*
D19*
X6361Y3772D02*
D03*
X6361Y2788D02*
D03*
M02*
