M48
;Layer_Color=9474304
;FILE_FORMAT=2:4
INCH,TZ
;TYPE=PLATED
T1F00S00C0.0120
T2F00S00C0.0160
%
T01
X2733Y3674
X3205Y3674
X3205Y4146
X3677Y4146
X3677Y3674
X3677Y4618
X3205Y4618
X2733Y4618
X2733Y4146
T02
X300Y300
X300Y1500
X300Y2250
X300Y4250
X805Y5506
X1359Y5985
X1923Y5676
X2000Y6450
X300Y6450
X1383Y976
X2313Y1466
X2634Y1912
X2523Y496
X3111Y1153
X3830Y1145
X3953Y2066
X3733Y2366
X3091Y2511
X4283Y1746
X4713Y826
X5303Y956
X5500Y300
X7100Y300
X7083Y1706
X6133Y1746
X5793Y2346
X5743Y3286
X5684Y3722
X5657Y4069
X5750Y5000
X4885Y4957
X4155Y5346
X4500Y6450
X5500Y6450
X7100Y6450
X7100Y5000
X6936Y3898
X6983Y2709
X4406Y3221
M30
