%FSLAX24Y24*%
%MOIN*%
G70*
G01*
G75*
G04 Layer_Physical_Order=1*
G04 Layer_Color=255*
%ADD10C,0.0080*%
%ADD11R,0.0200X0.0250*%
%ADD12O,0.0118X0.0335*%
%ADD13O,0.0335X0.0118*%
%ADD14R,0.1457X0.1457*%
%ADD15R,0.0433X0.0472*%
%ADD16R,0.0709X0.0394*%
%ADD17R,0.0250X0.0200*%
%ADD18C,0.0100*%
%ADD19C,0.0060*%
%ADD20C,0.0300*%
%ADD21C,0.0320*%
%ADD22C,0.0240*%
D10*
X7261Y3316D02*
G03*
X7280Y3341I-85J85D01*
G01*
X7261Y3316D02*
G03*
X7280Y3341I-85J85D01*
G01*
X4108Y5101D02*
G03*
X4365Y5210I47J245D01*
G01*
X4365Y4956D02*
G03*
X4278Y4984I-87J-121D01*
G01*
X4329Y2983D02*
G03*
X4653Y3186I77J238D01*
G01*
X3945Y2657D02*
G03*
X4044Y2698I0J140D01*
G01*
X4171Y654D02*
G03*
X4228Y668I0J120D01*
G01*
X4171Y654D02*
G03*
X4228Y668I0J120D01*
G01*
X3945Y2657D02*
G03*
X4044Y2698I0J140D01*
G01*
X3612Y2577D02*
G03*
X3938Y2657I119J220D01*
G01*
X3021Y2271D02*
G03*
X3225Y2300I69J240D01*
G01*
X2208Y2383D02*
G03*
X2261Y2350I99J99D01*
G01*
X2208Y2383D02*
G03*
X2261Y2350I99J99D01*
G01*
X235Y2118D02*
G03*
X120Y2088I0J-240D01*
G01*
X120Y1667D02*
G03*
X235Y1638I115J211D01*
G01*
X7229Y4806D02*
X7229Y6630D01*
X7280Y4806D02*
X7280Y6630D01*
X7159Y4806D02*
X7159Y6630D01*
X4745Y5073D02*
X7280Y5073D01*
X4745Y5003D02*
X7280Y5003D01*
X4745Y5213D02*
X7280Y5213D01*
X6739Y4806D02*
X6739Y6630D01*
X6809Y4806D02*
X6809Y6630D01*
X6669Y4806D02*
X6669Y6630D01*
X6949Y4806D02*
X6949Y6630D01*
X7019Y4806D02*
X7019Y6630D01*
X6879Y4806D02*
X6879Y6630D01*
X6389Y4806D02*
X6389Y6630D01*
X6459Y4806D02*
X6459Y6630D01*
X6319Y4806D02*
X6319Y6630D01*
X6599Y4806D02*
X6599Y6630D01*
X7089Y4806D02*
X7089Y6630D01*
X6529Y4806D02*
X6529Y6630D01*
X6039Y4806D02*
X6039Y6630D01*
X6109Y4806D02*
X6109Y6630D01*
X5969Y4806D02*
X5969Y6630D01*
X6249Y4806D02*
X6249Y6630D01*
X6179Y4806D02*
X6179Y6630D01*
X4295Y6263D02*
X7280Y6263D01*
X4295Y6193D02*
X7280Y6193D01*
X4295Y6333D02*
X7280Y6333D01*
X4295Y6053D02*
X7280Y6053D01*
X4295Y5983D02*
X7280Y5983D01*
X4295Y6123D02*
X7280Y6123D01*
X4295Y6613D02*
X7280Y6613D01*
X4295Y6543D02*
X7280Y6543D01*
X4295Y6630D02*
X7280Y6630D01*
X4295Y6403D02*
X7280Y6403D01*
X4295Y6473D02*
X7280Y6473D01*
X4745Y5493D02*
X7280Y5493D01*
X4745Y5423D02*
X7280Y5423D01*
X4745Y5563D02*
X7280Y5563D01*
X4745Y5353D02*
X7280Y5353D01*
X4745Y5283D02*
X7280Y5283D01*
X4301Y5143D02*
X7280Y5143D01*
X4295Y5843D02*
X7280Y5843D01*
X4295Y5773D02*
X7280Y5773D01*
X4295Y5913D02*
X7280Y5913D01*
X4295Y5633D02*
X7280Y5633D01*
X4295Y5703D02*
X7280Y5703D01*
X6907Y4324D02*
X7056Y4175D01*
X6876Y4163D02*
X7056Y4163D01*
X6876Y4093D02*
X7056Y4093D01*
X6806Y3883D02*
X7056Y3883D01*
X6806Y3813D02*
X7056Y3813D01*
X6806Y4023D02*
X7056Y4023D01*
X6876Y4303D02*
X6928Y4303D01*
X6876Y4026D02*
X6876Y4324D01*
X6907Y4324D01*
X6876Y4233D02*
X6998Y4233D01*
X6806Y4026D02*
X6876Y4026D01*
X6806Y3953D02*
X7056Y3953D01*
X6806Y3673D02*
X7056Y3673D01*
X6806Y3603D02*
X7056Y3603D01*
X6806Y3743D02*
X7056Y3743D01*
X6806Y3533D02*
X7056Y3533D01*
X7019Y3414D02*
X7019Y4212D01*
X6949Y3344D02*
X6949Y4282D01*
X6879Y3274D02*
X6879Y4324D01*
X7056Y3451D02*
X7056Y4175D01*
X6806Y3485D02*
X6806Y4026D01*
X4745Y4863D02*
X7280Y4863D01*
X4745Y4806D02*
X7280Y4806D01*
X4745Y4933D02*
X7280Y4933D01*
X5946Y4059D02*
X5946Y4198D01*
X5476Y4163D02*
X5946Y4163D01*
X5476Y4093D02*
X5946Y4093D01*
X5476Y4023D02*
X5917Y4023D01*
X5476Y4203D02*
X5941Y4203D01*
X5476Y3883D02*
X5917Y3883D01*
X5476Y3953D02*
X5917Y3953D01*
X5917Y3485D02*
X6806Y3485D01*
X5476Y3463D02*
X7056Y3463D01*
X5476Y3673D02*
X5917Y3673D01*
X5476Y3323D02*
X6928Y3323D01*
X5476Y3253D02*
X6858Y3253D01*
X5476Y3393D02*
X6998Y3393D01*
X5476Y3813D02*
X5917Y3813D01*
X5917Y3485D02*
X5917Y4059D01*
X5476Y3743D02*
X5917Y3743D01*
X5476Y3533D02*
X5917Y3533D01*
X5476Y3603D02*
X5917Y3603D01*
X5479Y4806D02*
X5479Y6630D01*
X5549Y4806D02*
X5549Y6630D01*
X5409Y4806D02*
X5409Y6630D01*
X5829Y4806D02*
X5829Y6630D01*
X5899Y4806D02*
X5899Y6630D01*
X5619Y4806D02*
X5619Y6630D01*
X4709Y5631D02*
X4709Y6630D01*
X5339Y4806D02*
X5339Y6630D01*
X4639Y5631D02*
X4639Y6630D01*
X4745Y5201D02*
X4745Y5631D01*
X4709Y5131D02*
X4709Y5201D01*
X4639Y5131D02*
X4639Y5201D01*
X5129Y4806D02*
X5129Y6630D01*
X5199Y4806D02*
X5199Y6630D01*
X5059Y4806D02*
X5059Y6630D01*
X5689Y4806D02*
X5689Y6630D01*
X5759Y4806D02*
X5759Y6630D01*
X5269Y4806D02*
X5269Y6630D01*
X4919Y4806D02*
X4919Y6630D01*
X4989Y4806D02*
X4989Y6630D01*
X4849Y4806D02*
X4849Y6630D01*
X4779Y4806D02*
X4779Y6630D01*
X4745Y4806D02*
X4745Y5131D01*
X4499Y5631D02*
X4499Y6630D01*
X4569Y5631D02*
X4569Y6630D01*
X4365Y5631D02*
X4745Y5631D01*
X4365Y5201D02*
X4745Y5201D01*
X4429Y5131D02*
X4429Y5201D01*
X4365Y5131D02*
X4745Y5131D01*
X4429Y5631D02*
X4429Y6630D01*
X4359Y5576D02*
X4359Y6630D01*
X4295Y5576D02*
X4295Y6620D01*
X4365Y5576D02*
X4365Y5631D01*
X4295Y5576D02*
X4365Y5576D01*
X4499Y5131D02*
X4499Y5201D01*
X4569Y5131D02*
X4569Y5201D01*
X4365Y4956D02*
X4365Y5131D01*
X4080Y5073D02*
X4365Y5073D01*
X4289Y4984D02*
X4289Y5135D01*
X4359Y4960D02*
X4359Y5201D01*
X4219Y4984D02*
X4219Y5104D01*
X4149Y4984D02*
X4149Y5096D01*
X4043Y5036D02*
X4108Y5101D01*
X5476Y3906D02*
X5476Y4203D01*
X5476Y3866D02*
X5476Y3906D01*
X5476Y3866D02*
X5476Y3906D01*
X5046Y3906D02*
X5046Y4203D01*
X4976Y4023D02*
X5046Y4023D01*
X5046Y3866D02*
X5046Y3906D01*
X5046Y3866D02*
X5046Y3906D01*
X5476Y3566D02*
X5476Y3866D01*
X5476Y3526D02*
X5476Y3566D01*
X5046Y3526D02*
X5046Y3566D01*
X4976Y3463D02*
X5046Y3463D01*
X4976Y3533D02*
X5046Y3533D01*
X5046Y3526D02*
X5046Y3866D01*
X4976Y3393D02*
X5046Y3393D01*
X4976Y3253D02*
X5046Y3253D01*
X4976Y3323D02*
X5046Y3323D01*
X4976Y4163D02*
X5046Y4163D01*
X4976Y4093D02*
X5046Y4093D01*
X4976Y4203D02*
X5046Y4203D01*
X4043Y5002D02*
X4043Y5036D01*
X4079Y4984D02*
X4079Y5072D01*
X4043Y5003D02*
X4365Y5003D01*
X4061Y4984D02*
X4278Y4984D01*
X4976Y3883D02*
X5046Y3883D01*
X4976Y3813D02*
X5046Y3813D01*
X4976Y3953D02*
X5046Y3953D01*
X4976Y3673D02*
X5046Y3673D01*
X4976Y3603D02*
X5046Y3603D01*
X4976Y3743D02*
X5046Y3743D01*
X4976Y3866D02*
X4976Y3906D01*
X4976Y3866D02*
X4976Y3906D01*
X4976Y4203D01*
X4976Y3526D02*
X4976Y3566D01*
X4976Y3866D01*
X7198Y3253D02*
X7280Y3253D01*
X7128Y3183D02*
X7280Y3183D01*
X7058Y3113D02*
X7280Y3113D01*
X6988Y3043D02*
X7280Y3043D01*
X6918Y2973D02*
X7280Y2973D01*
X6848Y2903D02*
X7280Y2903D01*
X6809Y3204D02*
X6809Y4026D01*
X6806Y2861D02*
X7261Y3316D01*
X6806Y2833D02*
X7280Y2833D01*
X6806Y2553D02*
X7280Y2553D01*
X6806Y2526D02*
X6866Y2526D01*
X6806Y2623D02*
X7280Y2623D01*
X7229Y120D02*
X7229Y3284D01*
X7280Y120D02*
X7280Y3341D01*
X7159Y120D02*
X7159Y3214D01*
X7019Y120D02*
X7019Y3074D01*
X7089Y120D02*
X7089Y3144D01*
X6866Y2483D02*
X7280Y2483D01*
X6879Y120D02*
X6879Y2934D01*
X6949Y120D02*
X6949Y3004D01*
X6809Y2526D02*
X6809Y2864D01*
X6866Y2146D02*
X6866Y2526D01*
X6806Y2526D02*
X6806Y2861D01*
X6739Y3134D02*
X6739Y3485D01*
X6669Y3075D02*
X6669Y3485D01*
X6599Y3075D02*
X6599Y3485D01*
X4653Y3183D02*
X6788Y3183D01*
X5917Y3075D02*
X6680Y3075D01*
X4631Y3113D02*
X6718Y3113D01*
X6249Y3075D02*
X6249Y3485D01*
X6389Y3075D02*
X6389Y3485D01*
X6179Y3075D02*
X6179Y3485D01*
X6529Y3075D02*
X6529Y3485D01*
X6459Y3075D02*
X6459Y3485D01*
X6806Y2763D02*
X7280Y2763D01*
X6806Y2693D02*
X7280Y2693D01*
X6680Y3075D02*
X7056Y3451D01*
X6366Y2501D02*
X6436Y2501D01*
X6436Y2146D02*
X6436Y2501D01*
X6366Y2483D02*
X6436Y2483D01*
X6319Y3075D02*
X6319Y3485D01*
X6366Y2146D02*
X6366Y2501D01*
X6109Y3075D02*
X6109Y3485D01*
X6389Y120D02*
X6389Y2501D01*
X6366Y2413D02*
X6436Y2413D01*
X6866Y2413D02*
X7280Y2413D01*
X6866Y2343D02*
X7280Y2343D01*
X6366Y2343D02*
X6436Y2343D01*
X6866Y2273D02*
X7280Y2273D01*
X6866Y2203D02*
X7280Y2203D01*
X6436Y2146D02*
X6866Y2146D01*
X6366Y2273D02*
X6436Y2273D01*
X6366Y2203D02*
X6436Y2203D01*
X5936Y2146D02*
X6366Y2146D01*
X6529Y120D02*
X6529Y2146D01*
X6599Y120D02*
X6599Y2146D01*
X6459Y120D02*
X6459Y2146D01*
X6739Y120D02*
X6739Y2146D01*
X6809Y120D02*
X6809Y2146D01*
X6669Y120D02*
X6669Y2146D01*
X6109Y120D02*
X6109Y2146D01*
X6179Y120D02*
X6179Y2146D01*
X6039Y120D02*
X6039Y2146D01*
X6319Y120D02*
X6319Y2146D01*
X6249Y120D02*
X6249Y2146D01*
X4470Y1503D02*
X7280Y1503D01*
X4470Y1433D02*
X7280Y1433D01*
X4470Y1573D02*
X7280Y1573D01*
X4470Y1293D02*
X7280Y1293D01*
X4470Y1223D02*
X7280Y1223D01*
X4470Y1363D02*
X7280Y1363D01*
X4137Y1853D02*
X7280Y1853D01*
X4137Y1783D02*
X7280Y1783D01*
X4137Y1923D02*
X7280Y1923D01*
X4137Y1643D02*
X7280Y1643D01*
X4137Y1713D02*
X7280Y1713D01*
X4470Y733D02*
X7280Y733D01*
X4216Y663D02*
X7280Y663D01*
X4137Y593D02*
X7280Y593D01*
X4137Y453D02*
X7280Y453D01*
X4137Y383D02*
X7280Y383D01*
X4137Y523D02*
X7280Y523D01*
X4470Y1013D02*
X7280Y1013D01*
X4470Y943D02*
X7280Y943D01*
X4470Y1083D02*
X7280Y1083D01*
X4470Y803D02*
X7280Y803D01*
X4470Y873D02*
X7280Y873D01*
X5689Y120D02*
X5689Y4203D01*
X5899Y120D02*
X5899Y4203D01*
X5619Y120D02*
X5619Y4203D01*
X5969Y3075D02*
X5969Y3485D01*
X6039Y3075D02*
X6039Y3485D01*
X5917Y2501D02*
X5917Y3075D01*
X5476Y3186D02*
X5476Y3566D01*
X5549Y120D02*
X5549Y4203D01*
X4976Y3186D02*
X4976Y3566D01*
X5046Y3186D02*
X5046Y3526D01*
X5046Y3186D02*
X5476Y3186D01*
X5759Y120D02*
X5759Y4203D01*
X5829Y120D02*
X5829Y4203D01*
X5479Y120D02*
X5479Y4203D01*
X5339Y120D02*
X5339Y3186D01*
X5409Y120D02*
X5409Y3186D01*
X5269Y120D02*
X5269Y3186D01*
X5129Y120D02*
X5129Y3186D01*
X5199Y120D02*
X5199Y3186D01*
X4989Y120D02*
X4989Y4203D01*
X5059Y120D02*
X5059Y3186D01*
X4919Y120D02*
X4919Y3186D01*
X4653Y3186D02*
X4976Y3186D01*
X4582Y3043D02*
X5917Y3043D01*
X4439Y2973D02*
X5917Y2973D01*
X4249Y2903D02*
X5917Y2903D01*
X4179Y2833D02*
X5917Y2833D01*
X4109Y2763D02*
X5917Y2763D01*
X4319Y2973D02*
X4373Y2973D01*
X4044Y2698D02*
X4329Y2983D01*
X4079Y1936D02*
X4079Y2733D01*
X4779Y120D02*
X4779Y3186D01*
X4849Y120D02*
X4849Y3186D01*
X4709Y120D02*
X4709Y3186D01*
X4569Y120D02*
X4569Y3031D01*
X4639Y120D02*
X4639Y3130D01*
X4499Y120D02*
X4499Y2989D01*
X4359Y1598D02*
X4359Y2975D01*
X4429Y1598D02*
X4429Y2972D01*
X4289Y1598D02*
X4289Y2943D01*
X4219Y1598D02*
X4219Y2873D01*
X4149Y1598D02*
X4149Y2803D01*
X5936Y2146D02*
X5936Y2501D01*
X4470Y1168D02*
X4470Y1598D01*
X4137Y1598D02*
X4470Y1598D01*
X4359Y1098D02*
X4359Y1168D01*
X4429Y1098D02*
X4429Y1168D01*
X4137Y1598D02*
X4137Y1936D01*
X4289Y1098D02*
X4289Y1168D01*
X4149Y1098D02*
X4149Y1168D01*
X4470Y668D02*
X4470Y1098D01*
X5969Y120D02*
X5969Y2146D01*
X4228Y668D02*
X4470Y668D01*
X4359Y120D02*
X4359Y668D01*
X4429Y120D02*
X4429Y668D01*
X4289Y120D02*
X4289Y668D01*
X4219Y1098D02*
X4219Y1168D01*
X4219Y120D02*
X4219Y664D01*
X4149Y120D02*
X4149Y654D01*
X4039Y2693D02*
X5917Y2693D01*
X3911Y2623D02*
X5917Y2623D01*
X4090Y1168D02*
X4470Y1168D01*
X4090Y1098D02*
X4470Y1098D01*
X4090Y1168D02*
X4090Y1284D01*
X4009Y1936D02*
X4009Y2672D01*
X3869Y1936D02*
X3869Y2588D01*
X4090Y996D02*
X4090Y1098D01*
X4137Y344D02*
X4137Y654D01*
X4079Y996D02*
X4079Y1284D01*
X4137Y654D02*
X4171Y654D01*
X4079Y120D02*
X4079Y344D01*
X4009Y120D02*
X4009Y344D01*
X3939Y996D02*
X3939Y1284D01*
X4009Y996D02*
X4009Y1284D01*
X3869Y996D02*
X3869Y1284D01*
X3939Y120D02*
X3939Y344D01*
X3869Y120D02*
X3869Y344D01*
X1745Y5843D02*
X2192Y5843D01*
X2192Y5454D02*
X2192Y6630D01*
X1745Y5773D02*
X2192Y5773D01*
X1745Y5633D02*
X2192Y5633D01*
X1745Y5563D02*
X2192Y5563D01*
X1745Y5703D02*
X2192Y5703D01*
X1699Y5861D02*
X1699Y6630D01*
X2189Y5451D02*
X2189Y6630D01*
X1559Y5861D02*
X1559Y6630D01*
X1745Y5493D02*
X2192Y5493D01*
X1745Y5431D02*
X1745Y5861D01*
X1629Y5861D02*
X1629Y6630D01*
X1909Y5326D02*
X1909Y6630D01*
X1979Y5326D02*
X1979Y6630D01*
X1839Y5326D02*
X1839Y6630D01*
X2119Y5381D02*
X2119Y6630D01*
X2064Y5326D02*
X2192Y5454D01*
X2049Y5326D02*
X2049Y6630D01*
X1699Y5361D02*
X1699Y5431D01*
X1769Y5326D02*
X1769Y6630D01*
X1559Y5361D02*
X1559Y5431D01*
X1745Y5326D02*
X1745Y5361D01*
X1629Y5361D02*
X1629Y5431D01*
X120Y6263D02*
X2192Y6263D01*
X120Y6193D02*
X2192Y6193D01*
X120Y6333D02*
X2192Y6333D01*
X120Y6053D02*
X2192Y6053D01*
X120Y5983D02*
X2192Y5983D01*
X120Y6123D02*
X2192Y6123D01*
X120Y6613D02*
X2192Y6613D01*
X120Y6543D02*
X2192Y6543D01*
X120Y6630D02*
X2192Y6630D01*
X120Y6403D02*
X2192Y6403D01*
X120Y6473D02*
X2192Y6473D01*
X1395Y5861D02*
X1745Y5861D01*
X120Y5913D02*
X2192Y5913D01*
X1395Y5431D02*
X1745Y5431D01*
X120Y5423D02*
X2161Y5423D01*
X1489Y5861D02*
X1489Y6630D01*
X1419Y5861D02*
X1419Y6630D01*
X1489Y5361D02*
X1489Y5431D01*
X1419Y5361D02*
X1419Y5431D01*
X3785Y2553D02*
X5917Y2553D01*
X3612Y2483D02*
X5936Y2483D01*
X3612Y2413D02*
X5936Y2413D01*
X3612Y2273D02*
X5936Y2273D01*
X3612Y2203D02*
X5936Y2203D01*
X3612Y2343D02*
X5936Y2343D01*
X3612Y2553D02*
X3677Y2553D01*
X3168Y2273D02*
X3225Y2273D01*
X3021Y2203D02*
X3225Y2203D01*
X3021Y2133D02*
X3225Y2133D01*
X3612Y2133D02*
X7280Y2133D01*
X3021Y2063D02*
X3225Y2063D01*
X3612Y1993D02*
X7280Y1993D01*
X3612Y1936D02*
X4137Y1936D01*
X3612Y2063D02*
X7280Y2063D01*
X3021Y2011D02*
X3021Y2271D01*
X3099Y1936D02*
X3099Y2261D01*
X2959Y1936D02*
X2959Y2011D01*
X2889Y1936D02*
X2889Y2011D01*
X2125Y2343D02*
X2261Y2343D01*
X2125Y2273D02*
X2261Y2273D01*
X1745Y5353D02*
X2091Y5353D01*
X1745Y5326D02*
X2064Y5326D01*
X1395Y5361D02*
X1745Y5361D01*
X2141Y2450D02*
X2208Y2383D01*
X2125Y2413D02*
X2178Y2413D01*
X2641Y2017D02*
X2641Y2342D01*
X2641Y2017D02*
X2641Y2342D01*
X2261Y2017D02*
X2641Y2017D01*
X2641Y2011D02*
X3021Y2011D01*
X2125Y1993D02*
X3225Y1993D01*
X2261Y2017D02*
X2261Y2350D01*
X2125Y2203D02*
X2261Y2203D01*
X2125Y2063D02*
X2261Y2063D01*
X2125Y2133D02*
X2261Y2133D01*
X1279Y5861D02*
X1279Y6630D01*
X1349Y5861D02*
X1349Y6630D01*
X1015Y5861D02*
X1365Y5861D01*
X1349Y5361D02*
X1349Y5431D01*
X1015Y5431D02*
X1365Y5431D01*
X1139Y5861D02*
X1139Y6630D01*
X1209Y5861D02*
X1209Y6630D01*
X1069Y5861D02*
X1069Y6630D01*
X1015Y5431D02*
X1015Y5861D01*
X1209Y5361D02*
X1209Y5431D01*
X1279Y5361D02*
X1279Y5431D01*
X1139Y5361D02*
X1139Y5431D01*
X1015Y5361D02*
X1365Y5361D01*
X1069Y5361D02*
X1069Y5431D01*
X1015Y5326D02*
X1015Y5361D01*
X789Y5326D02*
X789Y6630D01*
X859Y5326D02*
X859Y6630D01*
X719Y5326D02*
X719Y6630D01*
X999Y5326D02*
X999Y6630D01*
X929Y5326D02*
X929Y6630D01*
X120Y5773D02*
X1015Y5773D01*
X120Y5703D02*
X1015Y5703D01*
X120Y5843D02*
X1015Y5843D01*
X120Y5563D02*
X1015Y5563D01*
X120Y5493D02*
X1015Y5493D01*
X120Y5633D02*
X1015Y5633D01*
X579Y5326D02*
X579Y6630D01*
X649Y5326D02*
X649Y6630D01*
X509Y5326D02*
X509Y6630D01*
X505Y5326D02*
X1015Y5326D01*
X120Y5353D02*
X1015Y5353D01*
X439Y2118D02*
X439Y6630D01*
X505Y2118D02*
X505Y5326D01*
X120Y5283D02*
X505Y5283D01*
X120Y5143D02*
X505Y5143D01*
X120Y5073D02*
X505Y5073D01*
X120Y5213D02*
X505Y5213D01*
X229Y2118D02*
X229Y6630D01*
X159Y2105D02*
X159Y6630D01*
X120Y2088D02*
X120Y6630D01*
X369Y2118D02*
X369Y6630D01*
X299Y2118D02*
X299Y6630D01*
X120Y3043D02*
X505Y3043D01*
X120Y2973D02*
X505Y2973D01*
X120Y3113D02*
X505Y3113D01*
X120Y2833D02*
X505Y2833D01*
X120Y2763D02*
X505Y2763D01*
X120Y2903D02*
X505Y2903D01*
X120Y3393D02*
X505Y3393D01*
X120Y3323D02*
X505Y3323D01*
X120Y3463D02*
X505Y3463D01*
X120Y3183D02*
X505Y3183D01*
X120Y3253D02*
X505Y3253D01*
X120Y2623D02*
X505Y2623D01*
X120Y2553D02*
X505Y2553D01*
X120Y2693D02*
X505Y2693D01*
X120Y2413D02*
X505Y2413D01*
X120Y2343D02*
X505Y2343D01*
X120Y2483D02*
X505Y2483D01*
X120Y2203D02*
X505Y2203D01*
X120Y2133D02*
X505Y2133D01*
X120Y2273D02*
X505Y2273D01*
X235Y2118D02*
X505Y2118D01*
X120Y4583D02*
X505Y4583D01*
X120Y4513D02*
X505Y4513D01*
X120Y4653D02*
X505Y4653D01*
X120Y4373D02*
X505Y4373D01*
X120Y4303D02*
X505Y4303D01*
X120Y4443D02*
X505Y4443D01*
X120Y4933D02*
X505Y4933D01*
X120Y4863D02*
X505Y4863D01*
X120Y5003D02*
X505Y5003D01*
X120Y4723D02*
X505Y4723D01*
X120Y4793D02*
X505Y4793D01*
X120Y3813D02*
X505Y3813D01*
X120Y3743D02*
X505Y3743D01*
X120Y3883D02*
X505Y3883D01*
X120Y3603D02*
X505Y3603D01*
X120Y3533D02*
X505Y3533D01*
X120Y3673D02*
X505Y3673D01*
X120Y4163D02*
X505Y4163D01*
X120Y4093D02*
X505Y4093D01*
X120Y4233D02*
X505Y4233D01*
X120Y3953D02*
X505Y3953D01*
X120Y4023D02*
X505Y4023D01*
X3729Y1936D02*
X3729Y2547D01*
X3799Y1936D02*
X3799Y2556D01*
X3612Y1284D02*
X4090Y1284D01*
X3612Y1153D02*
X7280Y1153D01*
X3612Y1083D02*
X4090Y1083D01*
X3612Y1223D02*
X4090Y1223D01*
X3612Y1936D02*
X3612Y2577D01*
X3659Y1936D02*
X3659Y2558D01*
X3225Y1936D02*
X3225Y2300D01*
X3169Y1936D02*
X3169Y2273D01*
X3612Y1067D02*
X3612Y1284D01*
X3029Y1936D02*
X3029Y2269D01*
X3729Y996D02*
X3729Y1284D01*
X3799Y996D02*
X3799Y1284D01*
X3659Y1020D02*
X3659Y1284D01*
X3666Y1013D02*
X4090Y1013D01*
X3683Y996D02*
X4090Y996D01*
X3612Y1067D02*
X3683Y996D01*
X3169Y996D02*
X3169Y1284D01*
X3239Y996D02*
X3239Y1284D01*
X3099Y996D02*
X3099Y1284D01*
X3372Y1017D02*
X3372Y1284D01*
X3309Y996D02*
X3309Y1284D01*
X2824Y1936D02*
X3225Y1936D01*
X2125Y1923D02*
X2824Y1923D01*
X2125Y1853D02*
X2824Y1853D01*
X2125Y1713D02*
X2824Y1713D01*
X2860Y1284D02*
X3372Y1284D01*
X2125Y1783D02*
X2824Y1783D01*
X2824Y1653D02*
X2824Y1936D01*
X2819Y1648D02*
X2819Y2011D01*
X2779Y1608D02*
X2824Y1653D01*
X2480Y1608D02*
X2779Y1608D01*
X2125Y1643D02*
X2814Y1643D01*
X2959Y996D02*
X2959Y1284D01*
X3029Y996D02*
X3029Y1284D01*
X2889Y996D02*
X2889Y1284D01*
X2860Y1223D02*
X3372Y1223D01*
X2860Y1083D02*
X3372Y1083D01*
X2125Y1153D02*
X3372Y1153D01*
X2860Y1178D02*
X2860Y1284D01*
X2819Y1108D02*
X2819Y1178D01*
X2480Y1178D02*
X2860Y1178D01*
X2860Y996D02*
X2860Y1108D01*
X2480Y1108D02*
X2860Y1108D01*
X3436Y803D02*
X3524Y803D01*
X3436Y733D02*
X3524Y733D01*
X3436Y903D02*
X3524Y815D01*
X3436Y593D02*
X3524Y593D01*
X3436Y383D02*
X3524Y383D01*
X3436Y663D02*
X3524Y663D01*
X3436Y873D02*
X3466Y873D01*
X3524Y344D02*
X3524Y815D01*
X3436Y344D02*
X3436Y903D01*
X3436Y453D02*
X3524Y453D01*
X3436Y523D02*
X3524Y523D01*
X3589Y120D02*
X3589Y344D01*
X3659Y120D02*
X3659Y344D01*
X3519Y120D02*
X3519Y820D01*
X3729Y120D02*
X3729Y344D01*
X3799Y120D02*
X3799Y344D01*
X3524Y344D02*
X4137Y344D01*
X3379Y120D02*
X3379Y344D01*
X3449Y120D02*
X3449Y890D01*
X3309Y120D02*
X3309Y344D01*
X3239Y120D02*
X3239Y344D01*
X3169Y120D02*
X3169Y344D01*
X2860Y996D02*
X3374Y996D01*
X120Y663D02*
X2823Y663D01*
X2480Y678D02*
X2823Y678D01*
X120Y593D02*
X2823Y593D01*
X120Y523D02*
X2823Y523D01*
X120Y383D02*
X2823Y383D01*
X120Y453D02*
X2823Y453D01*
X2823Y344D02*
X3436Y344D01*
X3099Y120D02*
X3099Y344D01*
X120Y313D02*
X7280Y313D01*
X120Y173D02*
X7280Y173D01*
X120Y120D02*
X7280Y120D01*
X120Y243D02*
X7280Y243D01*
X2823Y344D02*
X2823Y678D01*
X2889Y120D02*
X2889Y344D01*
X2819Y120D02*
X2819Y678D01*
X3029Y120D02*
X3029Y344D01*
X2959Y120D02*
X2959Y344D01*
X2609Y1608D02*
X2609Y2017D01*
X2679Y1608D02*
X2679Y2011D01*
X2539Y1608D02*
X2539Y2017D01*
X2749Y1608D02*
X2749Y2011D01*
X2125Y1573D02*
X2480Y1573D01*
X2125Y1503D02*
X2480Y1503D01*
X2480Y1178D02*
X2480Y1608D01*
X2125Y1146D02*
X2125Y2469D01*
X2125Y1433D02*
X2480Y1433D01*
X2125Y1293D02*
X2480Y1293D01*
X2125Y1223D02*
X2480Y1223D01*
X2125Y1363D02*
X2480Y1363D01*
X2539Y1108D02*
X2539Y1178D01*
X2469Y120D02*
X2469Y2017D01*
X2399Y120D02*
X2399Y2017D01*
X2679Y1108D02*
X2679Y1178D01*
X2749Y1108D02*
X2749Y1178D01*
X2609Y1108D02*
X2609Y1178D01*
X2259Y120D02*
X2259Y2351D01*
X2329Y120D02*
X2329Y2017D01*
X2189Y120D02*
X2189Y2402D01*
X1489Y120D02*
X1489Y1146D01*
X1349Y120D02*
X1349Y1146D01*
X235Y1638D02*
X505Y1638D01*
X120Y1573D02*
X505Y1573D01*
X120Y1503D02*
X505Y1503D01*
X120Y1363D02*
X505Y1363D01*
X120Y1153D02*
X505Y1153D01*
X120Y1433D02*
X505Y1433D01*
X120Y1643D02*
X184Y1643D01*
X505Y1146D02*
X505Y1638D01*
X120Y1223D02*
X505Y1223D01*
X120Y1293D02*
X505Y1293D01*
X1069Y120D02*
X1069Y1146D01*
X1139Y120D02*
X1139Y1146D01*
X439Y120D02*
X439Y1638D01*
X1209Y120D02*
X1209Y1146D01*
X1279Y120D02*
X1279Y1146D01*
X505Y1146D02*
X1515Y1146D01*
X159Y120D02*
X159Y1650D01*
X229Y120D02*
X229Y1638D01*
X120Y120D02*
X120Y1667D01*
X369Y120D02*
X369Y1638D01*
X299Y120D02*
X299Y1638D01*
X1895Y1083D02*
X2480Y1083D01*
X1895Y1013D02*
X2480Y1013D01*
X1895Y943D02*
X2480Y943D01*
X1895Y781D02*
X1895Y1146D01*
X2480Y678D02*
X2480Y1108D01*
X1895Y1146D02*
X2125Y1146D01*
X1895Y803D02*
X2480Y803D01*
X1895Y873D02*
X2480Y873D01*
X2119Y120D02*
X2119Y1146D01*
X2539Y120D02*
X2539Y678D01*
X2049Y120D02*
X2049Y1146D01*
X2679Y120D02*
X2679Y678D01*
X2749Y120D02*
X2749Y678D01*
X2609Y120D02*
X2609Y678D01*
X1909Y120D02*
X1909Y1146D01*
X1979Y120D02*
X1979Y1146D01*
X1839Y120D02*
X1839Y781D01*
X1769Y120D02*
X1769Y781D01*
X1699Y120D02*
X1699Y781D01*
X120Y1083D02*
X1515Y1083D01*
X1515Y781D02*
X1895Y781D01*
X120Y733D02*
X2480Y733D01*
X120Y1013D02*
X1515Y1013D01*
X1515Y781D02*
X1515Y1146D01*
X120Y943D02*
X1515Y943D01*
X120Y803D02*
X1515Y803D01*
X120Y873D02*
X1515Y873D01*
X929Y120D02*
X929Y1146D01*
X999Y120D02*
X999Y1146D01*
X859Y120D02*
X859Y1146D01*
X1559Y120D02*
X1559Y781D01*
X1629Y120D02*
X1629Y781D01*
X1419Y120D02*
X1419Y1146D01*
X579Y120D02*
X579Y1146D01*
X649Y120D02*
X649Y1146D01*
X509Y120D02*
X509Y1146D01*
X789Y120D02*
X789Y1146D01*
X719Y120D02*
X719Y1146D01*
D11*
X4280Y883D02*
D03*
X4280Y1383D02*
D03*
X2670Y1393D02*
D03*
X2670Y893D02*
D03*
X1555Y5146D02*
D03*
X1555Y5646D02*
D03*
X1205Y5146D02*
D03*
X1205Y5646D02*
D03*
X2831Y2226D02*
D03*
X2831Y2726D02*
D03*
X1705Y2396D02*
D03*
X1705Y1896D02*
D03*
X1705Y996D02*
D03*
X1705Y1496D02*
D03*
X1705Y3696D02*
D03*
X1705Y4196D02*
D03*
X1355Y4246D02*
D03*
X1355Y4746D02*
D03*
X1705Y2796D02*
D03*
X1705Y3296D02*
D03*
X2451Y2232D02*
D03*
X2451Y2732D02*
D03*
X4555Y5416D02*
D03*
X4555Y4916D02*
D03*
D12*
X3894Y3181D02*
D03*
X3697Y3181D02*
D03*
X3500Y3181D02*
D03*
X3303Y3181D02*
D03*
X3107Y3181D02*
D03*
X2910Y3181D02*
D03*
X2713Y3181D02*
D03*
X2516Y3181D02*
D03*
X2516Y5111D02*
D03*
X2713Y5111D02*
D03*
X2910Y5111D02*
D03*
X3107Y5111D02*
D03*
X3303Y5111D02*
D03*
X3500Y5111D02*
D03*
X3697Y5111D02*
D03*
X3894Y5111D02*
D03*
D13*
X2240Y3457D02*
D03*
X2240Y3654D02*
D03*
X2240Y3851D02*
D03*
X2240Y4048D02*
D03*
X2240Y4244D02*
D03*
X2240Y4441D02*
D03*
X2240Y4638D02*
D03*
X2240Y4835D02*
D03*
X4170Y4835D02*
D03*
X4170Y4638D02*
D03*
X4170Y4441D02*
D03*
X4170Y4244D02*
D03*
X4170Y4048D02*
D03*
X4170Y3851D02*
D03*
X4170Y3654D02*
D03*
X4170Y3457D02*
D03*
D14*
X3205Y4146D02*
D03*
D15*
X3129Y670D02*
D03*
X3831Y670D02*
D03*
X3131Y1610D02*
D03*
X3831Y1610D02*
D03*
D16*
X6361Y3772D02*
D03*
X6361Y2788D02*
D03*
D17*
X5261Y3376D02*
D03*
X4761Y3376D02*
D03*
X4761Y4056D02*
D03*
X5261Y4056D02*
D03*
X6161Y4216D02*
D03*
X6661Y4216D02*
D03*
X6651Y2336D02*
D03*
X6151Y2336D02*
D03*
X4761Y3716D02*
D03*
X5261Y3716D02*
D03*
D18*
X6661Y4216D02*
X6836Y4216D01*
X4555Y4916D02*
X4555Y5091D01*
X5261Y4056D02*
X5436Y4056D01*
X5261Y3716D02*
X5436Y3716D01*
X5086Y3716D02*
X5261Y3716D01*
X5086Y4056D02*
X5261Y4056D01*
X5086Y3376D02*
X5261Y3376D01*
X5436Y3376D01*
X4405Y4916D02*
X4555Y4916D01*
X4705Y4916D01*
X4170Y4835D02*
X4170Y4944D01*
X6151Y2336D02*
X6326Y2336D01*
X6151Y2186D02*
X6151Y2336D01*
X5976Y2336D02*
X6151Y2336D01*
X5261Y3226D02*
X5261Y3376D01*
X4280Y1383D02*
X4430Y1383D01*
X4280Y1383D02*
X4280Y1558D01*
X4280Y1208D02*
X4280Y1383D01*
X3831Y1610D02*
X4097Y1610D01*
X3831Y1324D02*
X3831Y1610D01*
X3831Y1896D01*
X1555Y5646D02*
X1555Y5821D01*
X1555Y5646D02*
X1705Y5646D01*
X1555Y5471D02*
X1555Y5646D01*
X2831Y2226D02*
X2981Y2226D01*
X2831Y2051D02*
X2831Y2226D01*
X2301Y2232D02*
X2451Y2232D01*
X2601Y2232D01*
X2681Y2226D02*
X2831Y2226D01*
X2451Y2057D02*
X2451Y2232D01*
X1205Y5471D02*
X1205Y5646D01*
X1055Y5646D02*
X1205Y5646D01*
X1205Y5821D01*
X3129Y670D02*
X3129Y956D01*
X3129Y670D02*
X3396Y670D01*
X2863Y670D02*
X3129Y670D01*
X3129Y384D02*
X3129Y670D01*
X2670Y893D02*
X2670Y1068D01*
X2520Y893D02*
X2670Y893D01*
X2670Y718D02*
X2670Y893D01*
X1555Y996D02*
X1705Y996D01*
X1705Y821D02*
X1705Y996D01*
X1855Y996D01*
X4367Y3219D02*
X4414Y3219D01*
X3905Y5096D02*
X4155Y5346D01*
X4155Y6620D01*
X4561Y3376D02*
X4761Y3376D01*
X4406Y3221D02*
X4561Y3376D01*
X2713Y2832D02*
X2857Y2688D01*
X4170Y3457D02*
X4406Y3221D01*
X4155Y5346D02*
X4245Y5436D01*
X3731Y2797D02*
X3945Y2797D01*
X3531Y2797D02*
X3731Y2797D01*
X3945Y2797D02*
X4367Y3219D01*
X3303Y3025D02*
X3531Y2797D01*
X3303Y3025D02*
X3303Y3181D01*
X2831Y2726D02*
X3047Y2511D01*
X2307Y2482D02*
X2686Y2482D01*
X2240Y2549D02*
X2307Y2482D01*
X2240Y2549D02*
X2240Y3457D01*
X2686Y2482D02*
X2812Y2608D01*
X3894Y3181D02*
X3905Y3170D01*
X3500Y3181D02*
X3500Y3498D01*
X2713Y2832D02*
X2713Y3181D01*
X4245Y5436D02*
X4551Y5436D01*
X4155Y4826D02*
X4165Y4836D01*
X3697Y3498D02*
X3705Y3506D01*
X1675Y1846D02*
X1695Y1866D01*
X1834Y4054D02*
X2233Y4054D01*
X1692Y4196D02*
X1834Y4054D01*
X1853Y3857D02*
X2233Y3857D01*
X1705Y3316D02*
X1705Y3696D01*
X1695Y3306D02*
X1705Y3316D01*
X1692Y3696D02*
X1853Y3857D01*
X1695Y2396D02*
X1705Y2406D01*
X1705Y2816D01*
X1705Y4246D02*
X1715Y4236D01*
X1355Y4246D02*
X1705Y4246D01*
X2240Y3654D02*
X2717Y3654D01*
X2735Y3636D01*
X3895Y4826D02*
X4155Y4826D01*
X3815Y4746D02*
X3895Y4826D01*
X1695Y1506D02*
X1705Y1516D01*
X1705Y1876D01*
X3697Y3181D02*
X3697Y3498D01*
X2240Y4638D02*
X2713Y4638D01*
X3205Y4146D01*
X2240Y4835D02*
X2249Y4826D01*
X2525Y4826D01*
X3205Y4146D01*
D19*
X2910Y3047D02*
X2910Y3181D01*
X2910Y3047D02*
X3345Y2613D01*
X2312Y5404D02*
X2312Y6634D01*
X1971Y5063D02*
X2312Y5404D01*
X1971Y4530D02*
X1971Y5063D01*
X1971Y4530D02*
X2060Y4441D01*
X3697Y5111D02*
X3697Y6640D01*
X3500Y5111D02*
X3500Y6640D01*
X3303Y5111D02*
X3303Y6640D01*
X3107Y5111D02*
X3107Y6640D01*
X2910Y5111D02*
X2910Y6640D01*
X2713Y5111D02*
X2713Y6640D01*
X2516Y5111D02*
X2516Y6640D01*
X3123Y1626D02*
X3345Y1848D01*
X3735Y774D02*
X4171Y774D01*
X3492Y1017D02*
X3735Y774D01*
X3492Y1017D02*
X3492Y2638D01*
X6682Y2316D02*
X6682Y2907D01*
X4171Y774D02*
X4280Y883D01*
X3107Y3023D02*
X3107Y3181D01*
X4170Y3851D02*
X4379Y3851D01*
X4584Y4056D01*
X4781Y4056D01*
X4676Y3654D02*
X4751Y3729D01*
X4170Y3654D02*
X4676Y3654D01*
X3345Y1848D02*
X3345Y2613D01*
X3107Y3023D02*
X3492Y2638D01*
X2679Y1429D02*
X2769Y1429D01*
X2913Y1573D01*
X4622Y4323D02*
X5991Y4323D01*
X4347Y4048D02*
X4622Y4323D01*
X4170Y4048D02*
X4347Y4048D01*
X4145Y4236D02*
X4355Y4236D01*
X4563Y4444D01*
X2110Y4251D02*
X2233Y4251D01*
X2913Y1573D02*
X3020Y1573D01*
X2495Y2732D02*
X2495Y3196D01*
X1545Y4746D02*
X2045Y4246D01*
X2060Y4441D02*
X2240Y4441D01*
X1365Y4756D02*
X1365Y5146D01*
X1535Y5146D02*
X1545Y5156D01*
X1355Y4746D02*
X1545Y4746D01*
X1195Y5146D02*
X1535Y5146D01*
X2045Y4246D02*
X2245Y4246D01*
X4170Y4441D02*
X4370Y4441D01*
X4493Y4564D01*
X4170Y4638D02*
X4345Y4638D01*
X4393Y4686D01*
X4563Y4444D02*
X6957Y4444D01*
X4493Y4564D02*
X7290Y4564D01*
X4393Y4686D02*
X7290Y4686D01*
X5991Y4323D02*
X6352Y3962D01*
X6682Y2907D02*
X7176Y3401D01*
X7176Y4225D01*
X6957Y4444D02*
X7176Y4225D01*
D20*
X235Y1878D02*
X1705Y1878D01*
D21*
X4500Y6450D02*
D03*
X3731Y2797D02*
D03*
X1923Y5676D02*
D03*
X2000Y6450D02*
D03*
X5500Y1750D02*
D03*
X4283Y1746D02*
D03*
X300Y4250D02*
D03*
X300Y1500D02*
D03*
X300Y2250D02*
D03*
X4406Y3221D02*
D03*
X3091Y2511D02*
D03*
X4713Y826D02*
D03*
X7100Y300D02*
D03*
X6936Y3898D02*
D03*
X7100Y1700D02*
D03*
X5260Y3010D02*
D03*
X5500Y6450D02*
D03*
X3830Y1145D02*
D03*
X3111Y1153D02*
D03*
X5657Y4069D02*
D03*
X2634Y1912D02*
D03*
X2313Y1466D02*
D03*
X1359Y5985D02*
D03*
X5743Y3286D02*
D03*
X4155Y5346D02*
D03*
X5750Y5000D02*
D03*
X5500Y300D02*
D03*
X300Y6450D02*
D03*
X805Y5506D02*
D03*
X1383Y976D02*
D03*
X300Y300D02*
D03*
X5684Y3722D02*
D03*
X3756Y2099D02*
D03*
X4885Y4957D02*
D03*
X7100Y5000D02*
D03*
X7100Y6450D02*
D03*
X6983Y2709D02*
D03*
X2523Y496D02*
D03*
X5793Y2346D02*
D03*
X4202Y2654D02*
D03*
D22*
X3205Y4146D02*
D03*
X3205Y3674D02*
D03*
X3677Y3674D02*
D03*
X3677Y4146D02*
D03*
X3677Y4618D02*
D03*
X3205Y4618D02*
D03*
X2733Y4618D02*
D03*
X2733Y4146D02*
D03*
X2733Y3674D02*
D03*
M02*
