%FSLAX24Y24*%
%MOIN*%
G70*
G01*
G75*
G04 Layer_Physical_Order=2*
G04 Layer_Color=16711680*
%ADD10C,0.0080*%
%ADD11R,0.0300X0.0300*%
%ADD12R,0.0200X0.0250*%
%ADD13R,0.0300X0.0300*%
%ADD14R,0.0250X0.0200*%
%ADD15O,0.0118X0.0335*%
%ADD16O,0.0335X0.0118*%
%ADD17R,0.1457X0.1457*%
%ADD18R,0.0433X0.0472*%
%ADD19R,0.0709X0.0394*%
%ADD20C,0.0100*%
%ADD21C,0.0060*%
%ADD22C,0.0300*%
%ADD23C,0.0320*%
%ADD24C,0.0240*%
D10*
X4285Y5132D02*
G03*
X4405Y5346I-130J214D01*
G01*
X4405Y5346D02*
G03*
X4005Y5146I-250J0D01*
G01*
X4745Y4506D02*
G03*
X4704Y4605I-140J0D01*
G01*
X4745Y4506D02*
G03*
X4704Y4605I-140J0D01*
G01*
X4704Y3321D02*
G03*
X4745Y3420I-99J99D01*
G01*
X4704Y3321D02*
G03*
X4745Y3420I-99J99D01*
G01*
X4656Y3221D02*
G03*
X4651Y3268I-250J0D01*
G01*
X4005Y4966D02*
G03*
X4046Y4867I140J0D01*
G01*
X4005Y4966D02*
G03*
X4046Y4867I140J0D01*
G01*
X4453Y3466D02*
G03*
X4656Y3221I-47J-245D01*
G01*
X3983Y2366D02*
G03*
X3504Y2466I-250J0D01*
G01*
X3337Y2466D02*
G03*
X3341Y2511I-246J45D01*
G01*
X3560Y2186D02*
G03*
X3983Y2366I173J180D01*
G01*
X3176Y2227D02*
G03*
X3275Y2186I99J99D01*
G01*
X3341Y2511D02*
G03*
X3138Y2265I-250J0D01*
G01*
X3176Y2227D02*
G03*
X3275Y2186I99J99D01*
G01*
X4656Y4653D02*
X7280Y4653D01*
X4586Y4723D02*
X7280Y4723D01*
X4722Y4583D02*
X7280Y4583D01*
X4446Y4863D02*
X7280Y4863D01*
X4516Y4793D02*
X7280Y4793D01*
X4745Y4303D02*
X7280Y4303D01*
X4745Y4373D02*
X7280Y4373D01*
X4745Y4233D02*
X7280Y4233D01*
X4745Y4513D02*
X7280Y4513D01*
X4745Y4443D02*
X7280Y4443D01*
X4405Y5353D02*
X7280Y5353D01*
X4393Y5423D02*
X7280Y5423D01*
X4397Y5283D02*
X7280Y5283D01*
X4279Y5563D02*
X7280Y5563D01*
X4357Y5493D02*
X7280Y5493D01*
X4306Y5003D02*
X7280Y5003D01*
X4285Y5073D02*
X7280Y5073D01*
X4376Y4933D02*
X7280Y4933D01*
X4367Y5213D02*
X7280Y5213D01*
X4301Y5143D02*
X7280Y5143D01*
X4745Y3953D02*
X7280Y3953D01*
X4745Y4023D02*
X7280Y4023D01*
X4745Y3883D02*
X7280Y3883D01*
X4745Y4163D02*
X7280Y4163D01*
X4745Y4093D02*
X7280Y4093D01*
X4745Y3603D02*
X7280Y3603D01*
X4745Y3673D02*
X7280Y3673D01*
X4745Y3533D02*
X7280Y3533D01*
X4745Y3813D02*
X7280Y3813D01*
X4745Y3743D02*
X7280Y3743D01*
X4706Y3323D02*
X7280Y3323D01*
X4654Y3253D02*
X7280Y3253D01*
X4653Y3183D02*
X7280Y3183D01*
X4745Y3463D02*
X7280Y3463D01*
X4742Y3393D02*
X7280Y3393D01*
X4439Y2973D02*
X7280Y2973D01*
X3314Y2623D02*
X7280Y2623D01*
X4631Y3113D02*
X7280Y3113D01*
X4582Y3043D02*
X7280Y3043D01*
X4359Y5491D02*
X4359Y6630D01*
X4359Y4950D02*
X4359Y5201D01*
X4219Y5588D02*
X4219Y6630D01*
X4289Y5557D02*
X4289Y6630D01*
X4639Y4670D02*
X4639Y6630D01*
X4569Y4740D02*
X4569Y6630D01*
X4709Y4600D02*
X4709Y6630D01*
X4429Y4880D02*
X4429Y6630D01*
X4499Y4810D02*
X4499Y6630D01*
X4149Y5596D02*
X4149Y6630D01*
X4079Y5584D02*
X4079Y6630D01*
X3939Y5472D02*
X3939Y6630D01*
X4009Y5549D02*
X4009Y6630D01*
X3799Y2607D02*
X3799Y6630D01*
X4005Y4966D02*
X4005Y5146D01*
X3309Y2633D02*
X3309Y6630D01*
X3729Y2616D02*
X3729Y6630D01*
X4465Y3478D02*
X4465Y4448D01*
X4359Y3466D02*
X4359Y4554D01*
X4429Y3470D02*
X4429Y4484D01*
X4745Y3420D02*
X4745Y4506D01*
X4651Y3268D02*
X4704Y3321D01*
X4289Y5020D02*
X4289Y5135D01*
X4285Y5024D02*
X4285Y5132D01*
X4285Y5024D02*
X4704Y4605D01*
X4046Y4867D02*
X4465Y4448D01*
X4219Y3387D02*
X4219Y4694D01*
X4289Y3442D02*
X4289Y4624D01*
X6879Y120D02*
X6879Y6630D01*
X6809Y120D02*
X6809Y6630D01*
X6949Y120D02*
X6949Y6630D01*
X6669Y120D02*
X6669Y6630D01*
X6739Y120D02*
X6739Y6630D01*
X7229Y120D02*
X7229Y6630D01*
X7159Y120D02*
X7159Y6630D01*
X7280Y120D02*
X7280Y6630D01*
X7019Y120D02*
X7019Y6630D01*
X7089Y120D02*
X7089Y6630D01*
X5619Y120D02*
X5619Y6630D01*
X5549Y120D02*
X5549Y6630D01*
X6249Y120D02*
X6249Y6630D01*
X5409Y120D02*
X5409Y6630D01*
X5479Y120D02*
X5479Y6630D01*
X6529Y120D02*
X6529Y6630D01*
X6459Y120D02*
X6459Y6630D01*
X6599Y120D02*
X6599Y6630D01*
X6319Y120D02*
X6319Y6630D01*
X6389Y120D02*
X6389Y6630D01*
X5759Y120D02*
X5759Y6630D01*
X5689Y120D02*
X5689Y6630D01*
X5829Y120D02*
X5829Y6630D01*
X5269Y120D02*
X5269Y6630D01*
X5339Y120D02*
X5339Y6630D01*
X6109Y120D02*
X6109Y6630D01*
X6039Y120D02*
X6039Y6630D01*
X6179Y120D02*
X6179Y6630D01*
X5899Y120D02*
X5899Y6630D01*
X5969Y120D02*
X5969Y6630D01*
X3982Y2343D02*
X7280Y2343D01*
X3979Y2413D02*
X7280Y2413D01*
X3965Y2273D02*
X7280Y2273D01*
X3899Y2553D02*
X7280Y2553D01*
X3954Y2483D02*
X7280Y2483D01*
X3923Y2203D02*
X7280Y2203D01*
X3824Y2133D02*
X7280Y2133D01*
X5129Y120D02*
X5129Y6630D01*
X5199Y120D02*
X5199Y6630D01*
X4709Y120D02*
X4709Y3326D01*
X4639Y120D02*
X4639Y3130D01*
X4569Y120D02*
X4569Y3031D01*
X4149Y120D02*
X4149Y4764D01*
X4219Y120D02*
X4219Y3055D01*
X4989Y120D02*
X4989Y6630D01*
X4919Y120D02*
X4919Y6630D01*
X5059Y120D02*
X5059Y6630D01*
X4779Y120D02*
X4779Y6630D01*
X4849Y120D02*
X4849Y6630D01*
X3869Y2576D02*
X3869Y6630D01*
X3659Y2605D02*
X3659Y6630D01*
X3939Y2508D02*
X3939Y5220D01*
X3519Y2495D02*
X3519Y6630D01*
X3589Y2570D02*
X3589Y6630D01*
X4009Y120D02*
X4009Y4933D01*
X4079Y120D02*
X4079Y4834D01*
X3379Y2466D02*
X3379Y6630D01*
X3449Y2466D02*
X3449Y6630D01*
X3869Y120D02*
X3869Y2156D01*
X3799Y120D02*
X3799Y2125D01*
X3729Y120D02*
X3729Y2116D01*
X3589Y120D02*
X3589Y2162D01*
X3659Y120D02*
X3659Y2127D01*
X4499Y120D02*
X4499Y2989D01*
X4359Y120D02*
X4359Y2975D01*
X4429Y120D02*
X4429Y2972D01*
X4289Y120D02*
X4289Y3000D01*
X3939Y120D02*
X3939Y2224D01*
X3337Y2553D02*
X3567Y2553D01*
X3339Y2483D02*
X3512Y2483D01*
X3337Y2466D02*
X3504Y2466D01*
X3519Y120D02*
X3519Y2186D01*
X3379Y120D02*
X3379Y2186D01*
X3449Y120D02*
X3449Y2186D01*
X120Y5773D02*
X7280Y5773D01*
X120Y5843D02*
X7280Y5843D01*
X120Y5703D02*
X7280Y5703D01*
X120Y5983D02*
X7280Y5983D01*
X120Y5913D02*
X7280Y5913D01*
X120Y4513D02*
X4400Y4513D01*
X120Y5633D02*
X7280Y5633D01*
X120Y4443D02*
X4465Y4443D01*
X120Y4653D02*
X4260Y4653D01*
X120Y4583D02*
X4330Y4583D01*
X120Y6473D02*
X7280Y6473D01*
X120Y6543D02*
X7280Y6543D01*
X120Y6403D02*
X7280Y6403D01*
X120Y6630D02*
X7280Y6630D01*
X120Y6613D02*
X7280Y6613D01*
X120Y6123D02*
X7280Y6123D01*
X120Y6193D02*
X7280Y6193D01*
X120Y6053D02*
X7280Y6053D01*
X120Y6333D02*
X7280Y6333D01*
X120Y6263D02*
X7280Y6263D01*
X120Y3673D02*
X4465Y3673D01*
X120Y3743D02*
X4465Y3743D01*
X120Y3603D02*
X4465Y3603D01*
X120Y3533D02*
X4465Y3533D01*
X120Y3463D02*
X4344Y3463D01*
X120Y2763D02*
X7280Y2763D01*
X120Y2833D02*
X7280Y2833D01*
X3262Y2693D02*
X7280Y2693D01*
X120Y2973D02*
X4373Y2973D01*
X120Y2903D02*
X7280Y2903D01*
X120Y4163D02*
X4465Y4163D01*
X120Y4233D02*
X4465Y4233D01*
X120Y4093D02*
X4465Y4093D01*
X120Y4373D02*
X4465Y4373D01*
X120Y4303D02*
X4465Y4303D01*
X120Y3883D02*
X4465Y3883D01*
X120Y3813D02*
X4465Y3813D01*
X120Y4023D02*
X4465Y4023D01*
X120Y3953D02*
X4465Y3953D01*
X120Y5493D02*
X3953Y5493D01*
X120Y5563D02*
X4031Y5563D01*
X120Y5423D02*
X3917Y5423D01*
X3099Y2761D02*
X3099Y6630D01*
X120Y5353D02*
X3905Y5353D01*
X3169Y2748D02*
X3169Y6630D01*
X3029Y2753D02*
X3029Y6630D01*
X3239Y2712D02*
X3239Y6630D01*
X2889Y2659D02*
X2889Y6630D01*
X2959Y2723D02*
X2959Y6630D01*
X120Y5073D02*
X4005Y5073D01*
X120Y5143D02*
X4005Y5143D01*
X120Y5003D02*
X4005Y5003D01*
X120Y5283D02*
X3913Y5283D01*
X120Y5213D02*
X3943Y5213D01*
X120Y4793D02*
X4120Y4793D01*
X120Y4723D02*
X4190Y4723D01*
X120Y4933D02*
X4009Y4933D01*
X120Y4863D02*
X4050Y4863D01*
X120Y3113D02*
X4180Y3113D01*
X120Y3393D02*
X4225Y3393D01*
X120Y3043D02*
X4230Y3043D01*
X120Y3323D02*
X4178Y3323D01*
X120Y3183D02*
X4159Y3183D01*
X3275Y2186D02*
X3560Y2186D01*
X3138Y2265D02*
X3176Y2227D01*
X120Y2693D02*
X2919Y2693D01*
X120Y3253D02*
X4158Y3253D01*
X120Y2623D02*
X2867Y2623D01*
X120Y2553D02*
X2844Y2553D01*
X120Y2483D02*
X2842Y2483D01*
X120Y2273D02*
X3013Y2273D01*
X120Y2203D02*
X3209Y2203D01*
X120Y2413D02*
X2860Y2413D01*
X120Y2343D02*
X2905Y2343D01*
X2959Y120D02*
X2959Y2298D01*
X2889Y120D02*
X2889Y2363D01*
X120Y2133D02*
X3642Y2133D01*
X2749Y120D02*
X2749Y6630D01*
X2819Y120D02*
X2819Y6630D01*
X3239Y120D02*
X3239Y2191D01*
X3169Y120D02*
X3169Y2234D01*
X3309Y120D02*
X3309Y2186D01*
X3029Y120D02*
X3029Y2269D01*
X3099Y120D02*
X3099Y2261D01*
X120Y1853D02*
X7280Y1853D01*
X120Y1923D02*
X7280Y1923D01*
X120Y1783D02*
X7280Y1783D01*
X120Y2063D02*
X7280Y2063D01*
X120Y1993D02*
X7280Y1993D01*
X120Y1503D02*
X7280Y1503D01*
X120Y1573D02*
X7280Y1573D01*
X120Y1433D02*
X7280Y1433D01*
X120Y1713D02*
X7280Y1713D01*
X120Y1643D02*
X7280Y1643D01*
X120Y523D02*
X7280Y523D01*
X120Y593D02*
X7280Y593D01*
X120Y453D02*
X7280Y453D01*
X120Y733D02*
X7280Y733D01*
X120Y663D02*
X7280Y663D01*
X120Y173D02*
X7280Y173D01*
X120Y243D02*
X7280Y243D01*
X120Y120D02*
X7280Y120D01*
X120Y383D02*
X7280Y383D01*
X120Y313D02*
X7280Y313D01*
X120Y1153D02*
X7280Y1153D01*
X120Y1223D02*
X7280Y1223D01*
X120Y1083D02*
X7280Y1083D01*
X120Y1363D02*
X7280Y1363D01*
X120Y1293D02*
X7280Y1293D01*
X120Y873D02*
X7280Y873D01*
X120Y803D02*
X7280Y803D01*
X120Y1013D02*
X7280Y1013D01*
X120Y943D02*
X7280Y943D01*
X929Y120D02*
X929Y6630D01*
X859Y120D02*
X859Y6630D01*
X999Y120D02*
X999Y6630D01*
X719Y120D02*
X719Y6630D01*
X789Y120D02*
X789Y6630D01*
X1279Y120D02*
X1279Y6630D01*
X1209Y120D02*
X1209Y6630D01*
X1349Y120D02*
X1349Y6630D01*
X1069Y120D02*
X1069Y6630D01*
X1139Y120D02*
X1139Y6630D01*
X299Y120D02*
X299Y6630D01*
X229Y120D02*
X229Y6630D01*
X369Y120D02*
X369Y6630D01*
X120Y120D02*
X120Y6630D01*
X159Y120D02*
X159Y6630D01*
X579Y120D02*
X579Y6630D01*
X649Y120D02*
X649Y6630D01*
X439Y120D02*
X439Y6630D01*
X509Y120D02*
X509Y6630D01*
X2259Y120D02*
X2259Y6630D01*
X2189Y120D02*
X2189Y6630D01*
X2329Y120D02*
X2329Y6630D01*
X2049Y120D02*
X2049Y6630D01*
X2119Y120D02*
X2119Y6630D01*
X2609Y120D02*
X2609Y6630D01*
X2539Y120D02*
X2539Y6630D01*
X2679Y120D02*
X2679Y6630D01*
X2399Y120D02*
X2399Y6630D01*
X2469Y120D02*
X2469Y6630D01*
X1629Y120D02*
X1629Y6630D01*
X1559Y120D02*
X1559Y6630D01*
X1699Y120D02*
X1699Y6630D01*
X1419Y120D02*
X1419Y6630D01*
X1489Y120D02*
X1489Y6630D01*
X1909Y120D02*
X1909Y6630D01*
X1979Y120D02*
X1979Y6630D01*
X1769Y120D02*
X1769Y6630D01*
X1839Y120D02*
X1839Y6630D01*
D20*
X3275Y2326D02*
X3733Y2326D01*
X3091Y2511D02*
X3275Y2326D01*
X4406Y3221D02*
X4605Y3420D01*
X4145Y4966D02*
X4145Y5346D01*
X4605Y3420D02*
X4605Y4506D01*
X4145Y4966D02*
X4605Y4506D01*
D23*
X4500Y6450D02*
D03*
X1923Y5676D02*
D03*
X2000Y6450D02*
D03*
X3733Y2366D02*
D03*
X6133Y1746D02*
D03*
X4283Y1746D02*
D03*
X300Y4250D02*
D03*
X300Y1500D02*
D03*
X300Y2250D02*
D03*
X4406Y3221D02*
D03*
X3091Y2511D02*
D03*
X4713Y826D02*
D03*
X7100Y300D02*
D03*
X6936Y3898D02*
D03*
X7083Y1706D02*
D03*
X5303Y956D02*
D03*
X5500Y6450D02*
D03*
X3830Y1145D02*
D03*
X3111Y1153D02*
D03*
X5657Y4069D02*
D03*
X2634Y1912D02*
D03*
X2313Y1466D02*
D03*
X1359Y5985D02*
D03*
X5743Y3286D02*
D03*
X4155Y5346D02*
D03*
X5750Y5000D02*
D03*
X5500Y300D02*
D03*
X300Y6450D02*
D03*
X805Y5506D02*
D03*
X1383Y976D02*
D03*
X300Y300D02*
D03*
X5684Y3722D02*
D03*
X3953Y2066D02*
D03*
X4885Y4957D02*
D03*
X7100Y5000D02*
D03*
X7100Y6450D02*
D03*
X6983Y2709D02*
D03*
X2523Y496D02*
D03*
X5793Y2346D02*
D03*
D24*
X3205Y4146D02*
D03*
X3205Y3674D02*
D03*
X3677Y3674D02*
D03*
X3677Y4146D02*
D03*
X3677Y4618D02*
D03*
X3205Y4618D02*
D03*
X2733Y4618D02*
D03*
X2733Y4146D02*
D03*
X2733Y3674D02*
D03*
M02*
