G75*
G70*
%OFA0B0*%
%FSLAX24Y24*%
%IPPOS*%
%LPD*%
%AMOC8*
5,1,8,0,0,1.08239X$1,22.5*
%
%ADD10C,0.0000*%
%ADD11R,0.0315X0.0112*%
%ADD12R,0.0112X0.0315*%
%ADD13R,0.1378X0.1378*%
%ADD14R,0.0394X0.0433*%
%ADD15R,0.0433X0.0394*%
%ADD16R,0.0413X0.0512*%
%ADD17R,0.0866X0.0512*%
%ADD18C,0.0740*%
%ADD19R,0.0315X0.0315*%
%ADD20R,0.1600X0.0600*%
%ADD21C,0.0160*%
%ADD22C,0.0356*%
%ADD23C,0.0080*%
%ADD24C,0.0120*%
%ADD25C,0.0300*%
%ADD26C,0.0200*%
%ADD27C,0.0100*%
D10*
X000176Y000156D02*
X000176Y009251D01*
X011278Y009231D01*
X011318Y000156D01*
X000176Y000156D01*
D11*
X004428Y004428D03*
X004428Y004625D03*
X004428Y004822D03*
X004428Y005019D03*
X004428Y005216D03*
X004428Y005412D03*
X004428Y005609D03*
X004428Y005806D03*
X006396Y005806D03*
X006396Y005609D03*
X006396Y005412D03*
X006396Y005216D03*
X006396Y005019D03*
X006396Y004822D03*
X006396Y004625D03*
X006396Y004428D03*
D12*
X006101Y004133D03*
X005904Y004133D03*
X005708Y004133D03*
X005511Y004133D03*
X005314Y004133D03*
X005117Y004133D03*
X004920Y004133D03*
X004723Y004133D03*
X004723Y006101D03*
X004920Y006101D03*
X005117Y006101D03*
X005314Y006101D03*
X005511Y006101D03*
X005708Y006101D03*
X005904Y006101D03*
X006101Y006101D03*
D13*
X005412Y005117D03*
D14*
X005885Y003365D03*
X005885Y002696D03*
X006711Y002696D03*
X006711Y003365D03*
X007538Y003365D03*
X007538Y002696D03*
X008365Y002696D03*
X008365Y003365D03*
X010431Y004779D03*
X010431Y005448D03*
X010412Y006852D03*
X010412Y007522D03*
X004448Y003247D03*
X004448Y002578D03*
X003641Y002578D03*
X003641Y003247D03*
X002814Y003129D03*
X002814Y003660D03*
X002814Y004330D03*
X002814Y004861D03*
X002814Y005531D03*
X001928Y006200D03*
X001928Y006869D03*
X001121Y006869D03*
X001121Y006200D03*
X002814Y002460D03*
X002814Y001928D03*
X002814Y001259D03*
X003798Y001160D03*
X003798Y001830D03*
X006239Y001830D03*
X006239Y001160D03*
X007124Y001475D03*
X007124Y000806D03*
D15*
X007873Y004172D03*
X008542Y004172D03*
X008582Y005038D03*
X007912Y005038D03*
G36*
X007061Y006507D02*
X006756Y006202D01*
X006477Y006481D01*
X006782Y006786D01*
X007061Y006507D01*
G37*
G36*
X007534Y006980D02*
X007229Y006675D01*
X006950Y006954D01*
X007255Y007259D01*
X007534Y006980D01*
G37*
X002145Y005531D03*
X001475Y005531D03*
D16*
X004526Y001859D03*
X004526Y001131D03*
X005432Y001131D03*
X005432Y001859D03*
D17*
X009507Y005412D03*
X009507Y006869D03*
D18*
X010180Y008436D03*
X009180Y008536D03*
X008180Y008436D03*
X007180Y008536D03*
X006180Y008436D03*
X005180Y008536D03*
X004180Y008436D03*
X003180Y008536D03*
X002180Y008436D03*
X001180Y008536D03*
X010360Y001912D03*
X010460Y000912D03*
X010460Y002912D03*
D19*
X007851Y001397D03*
X007851Y000806D03*
D20*
X001079Y001463D03*
X001079Y002463D03*
X001079Y003463D03*
D21*
X001114Y003533D02*
X001009Y003533D01*
X001009Y003943D01*
X000356Y003943D01*
X000356Y009071D01*
X011099Y009052D01*
X011137Y000336D01*
X000356Y000336D01*
X000356Y000983D01*
X001009Y000983D01*
X001009Y001393D01*
X001149Y001393D01*
X001149Y001485D01*
X001219Y001415D01*
X002437Y001415D01*
X002437Y001277D01*
X002795Y001277D01*
X002795Y001240D01*
X002832Y001240D01*
X002832Y000862D01*
X003034Y000862D01*
X003080Y000875D01*
X003121Y000898D01*
X003155Y000932D01*
X003178Y000973D01*
X003191Y001019D01*
X003191Y001240D01*
X002832Y001240D01*
X002832Y001277D01*
X003191Y001277D01*
X003191Y001415D01*
X003228Y001415D01*
X003334Y001520D01*
X003334Y002217D01*
X003374Y002193D01*
X003420Y002181D01*
X003482Y002181D01*
X003457Y002157D01*
X003433Y002116D01*
X003421Y002070D01*
X003421Y001848D01*
X003780Y001848D01*
X003780Y001811D01*
X003421Y001811D01*
X003421Y001589D01*
X003433Y001544D01*
X003457Y001503D01*
X003491Y001469D01*
X003494Y001467D01*
X003461Y001435D01*
X003461Y000886D01*
X003543Y000804D01*
X004053Y000804D01*
X004135Y000886D01*
X004135Y000951D01*
X004180Y000951D01*
X004180Y000817D01*
X004262Y000735D01*
X004791Y000735D01*
X004873Y000817D01*
X004873Y000938D01*
X004962Y001027D01*
X005085Y001150D01*
X005085Y000817D01*
X005167Y000735D01*
X005697Y000735D01*
X005779Y000817D01*
X005779Y001445D01*
X005728Y001495D01*
X005779Y001545D01*
X005779Y001650D01*
X005902Y001650D01*
X005902Y001555D01*
X005935Y001523D01*
X005932Y001521D01*
X005898Y001487D01*
X005874Y001446D01*
X005862Y001401D01*
X005862Y001179D01*
X006221Y001179D01*
X006221Y001142D01*
X006257Y001142D01*
X006257Y000764D01*
X006460Y000764D01*
X006505Y000776D01*
X006546Y000800D01*
X006580Y000833D01*
X006604Y000874D01*
X006616Y000920D01*
X006616Y001142D01*
X006257Y001142D01*
X006257Y001179D01*
X006616Y001179D01*
X006616Y001401D01*
X006604Y001446D01*
X006580Y001487D01*
X006546Y001521D01*
X006543Y001523D01*
X006576Y001555D01*
X006576Y002104D01*
X006494Y002186D01*
X005984Y002186D01*
X005902Y002104D01*
X005902Y002010D01*
X005779Y002010D01*
X005779Y002173D01*
X005697Y002255D01*
X005494Y002255D01*
X005494Y003246D01*
X005548Y003192D01*
X005548Y003091D01*
X005580Y003058D01*
X005577Y003056D01*
X005544Y003023D01*
X005520Y002982D01*
X005508Y002936D01*
X005508Y002714D01*
X005866Y002714D01*
X005866Y002677D01*
X005903Y002677D01*
X005903Y002299D01*
X006105Y002299D01*
X006151Y002312D01*
X006192Y002335D01*
X008058Y002335D01*
X008099Y002312D01*
X008144Y002299D01*
X008347Y002299D01*
X008347Y002677D01*
X008383Y002677D01*
X008383Y002299D01*
X008586Y002299D01*
X008631Y002312D01*
X008672Y002335D01*
X009193Y002335D01*
X009352Y002177D02*
X006504Y002177D01*
X006457Y002339D02*
X006375Y002421D01*
X006375Y002970D01*
X006435Y003031D01*
X006375Y003091D01*
X006375Y003185D01*
X006222Y003185D01*
X006222Y003091D01*
X006189Y003058D01*
X006192Y003056D01*
X006226Y003023D01*
X006249Y002982D01*
X006262Y002936D01*
X006262Y002714D01*
X005903Y002714D01*
X005903Y002677D01*
X006262Y002677D01*
X006262Y002456D01*
X006249Y002410D01*
X006226Y002369D01*
X006192Y002335D01*
X006262Y002494D02*
X006375Y002494D01*
X006457Y002339D02*
X006966Y002339D01*
X007048Y002421D01*
X007048Y002516D01*
X007201Y002516D01*
X007201Y002421D01*
X007283Y002339D01*
X007793Y002339D01*
X007875Y002421D01*
X007875Y002970D01*
X007815Y003031D01*
X007875Y003091D01*
X007875Y003539D01*
X008028Y003539D01*
X008028Y003091D01*
X008061Y003058D01*
X008058Y003056D01*
X008024Y003023D01*
X008000Y002982D01*
X007988Y002936D01*
X007988Y002714D01*
X008347Y002714D01*
X008347Y002677D01*
X007988Y002677D01*
X007988Y002456D01*
X008000Y002410D01*
X008024Y002369D01*
X008058Y002335D01*
X007988Y002494D02*
X007875Y002494D01*
X007875Y002652D02*
X007988Y002652D01*
X007988Y002811D02*
X007875Y002811D01*
X007875Y002969D02*
X007997Y002969D01*
X008028Y003128D02*
X007875Y003128D01*
X007875Y003286D02*
X008028Y003286D01*
X008028Y003445D02*
X007875Y003445D01*
X008474Y003795D02*
X008547Y003722D01*
X008620Y003722D01*
X008702Y003640D01*
X008702Y003605D01*
X008925Y003605D01*
X009013Y003569D01*
X009080Y003501D01*
X009080Y003501D01*
X009395Y003186D01*
X009432Y003098D01*
X009432Y002776D01*
X009967Y002240D01*
X010071Y002345D01*
X010232Y002411D01*
X010172Y002442D01*
X010102Y002493D01*
X010041Y002554D01*
X009990Y002624D01*
X009951Y002701D01*
X009924Y002784D01*
X009910Y002869D01*
X009910Y002892D01*
X010440Y002892D01*
X010440Y002932D01*
X009910Y002932D01*
X009910Y002956D01*
X009924Y003041D01*
X009951Y003124D01*
X009990Y003201D01*
X010041Y003271D01*
X010102Y003332D01*
X010172Y003383D01*
X010249Y003422D01*
X010332Y003449D01*
X010417Y003462D01*
X010440Y003462D01*
X010440Y002932D01*
X010480Y002932D01*
X011010Y002932D01*
X011010Y002956D01*
X010997Y003041D01*
X010970Y003124D01*
X010931Y003201D01*
X010880Y003271D01*
X010819Y003332D01*
X010749Y003383D01*
X010671Y003422D01*
X010589Y003449D01*
X010504Y003462D01*
X010480Y003462D01*
X010480Y002932D01*
X010480Y002892D01*
X011010Y002892D01*
X011010Y002869D01*
X010997Y002784D01*
X010970Y002701D01*
X010931Y002624D01*
X010880Y002554D01*
X010819Y002493D01*
X010749Y002442D01*
X010671Y002403D01*
X010589Y002376D01*
X010578Y002374D01*
X010649Y002345D01*
X010793Y002201D01*
X010870Y002014D01*
X010870Y001811D01*
X010793Y001624D01*
X010649Y001480D01*
X010510Y001422D01*
X010562Y001422D01*
X010749Y001345D01*
X010893Y001201D01*
X010970Y001014D01*
X010970Y000811D01*
X010893Y000624D01*
X010749Y000480D01*
X010562Y000402D01*
X010359Y000402D01*
X010171Y000480D01*
X010028Y000624D01*
X009950Y000811D01*
X009950Y001014D01*
X010028Y001201D01*
X010171Y001345D01*
X010311Y001402D01*
X010259Y001402D01*
X010071Y001480D01*
X009928Y001624D01*
X009908Y001672D01*
X009820Y001709D01*
X009796Y001732D01*
X008107Y001732D01*
X008068Y001693D01*
X008149Y001612D01*
X008149Y001181D01*
X008069Y001101D01*
X008149Y001022D01*
X008149Y000591D01*
X008067Y000509D01*
X007636Y000509D01*
X007554Y000591D01*
X007554Y000626D01*
X007461Y000626D01*
X007461Y000532D01*
X007379Y000450D01*
X006869Y000450D01*
X006787Y000532D01*
X006787Y001081D01*
X006820Y001113D01*
X006817Y001115D01*
X006783Y001148D01*
X006759Y001189D01*
X006747Y001235D01*
X006747Y001457D01*
X007105Y001457D01*
X007105Y001494D01*
X006747Y001494D01*
X006747Y001716D01*
X006759Y001761D01*
X006783Y001802D01*
X006817Y001836D01*
X006858Y001860D01*
X006903Y001872D01*
X007105Y001872D01*
X007105Y001494D01*
X007142Y001494D01*
X007142Y001872D01*
X007344Y001872D01*
X007390Y001860D01*
X007431Y001836D01*
X007465Y001802D01*
X007488Y001761D01*
X007501Y001716D01*
X007501Y001494D01*
X007142Y001494D01*
X007142Y001457D01*
X007501Y001457D01*
X007501Y001235D01*
X007488Y001189D01*
X007465Y001148D01*
X007431Y001115D01*
X007428Y001113D01*
X007461Y001081D01*
X007461Y000986D01*
X007554Y000986D01*
X007554Y001022D01*
X007634Y001101D01*
X007554Y001181D01*
X007554Y001612D01*
X007636Y001694D01*
X007671Y001694D01*
X007671Y001806D01*
X007852Y001987D01*
X007958Y002092D01*
X009436Y002092D01*
X009056Y002473D01*
X009056Y002473D01*
X008988Y002540D01*
X008952Y002628D01*
X008952Y002951D01*
X008777Y003125D01*
X008702Y003125D01*
X008702Y003091D01*
X008669Y003058D01*
X008672Y003056D01*
X008706Y003023D01*
X008730Y002982D01*
X008742Y002936D01*
X008742Y002714D01*
X008383Y002714D01*
X008383Y002677D01*
X008742Y002677D01*
X008742Y002456D01*
X008730Y002410D01*
X008706Y002369D01*
X008672Y002335D01*
X008742Y002494D02*
X009035Y002494D01*
X008952Y002652D02*
X008742Y002652D01*
X008742Y002811D02*
X008952Y002811D01*
X008933Y002969D02*
X008733Y002969D01*
X008383Y002652D02*
X008347Y002652D01*
X008347Y002494D02*
X008383Y002494D01*
X008383Y002335D02*
X008347Y002335D01*
X007884Y002018D02*
X006576Y002018D01*
X006576Y001860D02*
X006857Y001860D01*
X006747Y001701D02*
X006576Y001701D01*
X006563Y001543D02*
X006747Y001543D01*
X006747Y001384D02*
X006616Y001384D01*
X006616Y001226D02*
X006750Y001226D01*
X006787Y001067D02*
X006616Y001067D01*
X006613Y000909D02*
X006787Y000909D01*
X006787Y000750D02*
X005712Y000750D01*
X005779Y000909D02*
X005865Y000909D01*
X005862Y000920D02*
X005874Y000874D01*
X005898Y000833D01*
X005932Y000800D01*
X005973Y000776D01*
X006018Y000764D01*
X006221Y000764D01*
X006221Y001142D01*
X005862Y001142D01*
X005862Y000920D01*
X005862Y001067D02*
X005779Y001067D01*
X005779Y001226D02*
X005862Y001226D01*
X005862Y001384D02*
X005779Y001384D01*
X005776Y001543D02*
X005915Y001543D01*
X005902Y002018D02*
X005779Y002018D01*
X005775Y002177D02*
X005975Y002177D01*
X005866Y002299D02*
X005866Y002677D01*
X005508Y002677D01*
X005508Y002456D01*
X005520Y002410D01*
X005544Y002369D01*
X005577Y002335D01*
X005618Y002312D01*
X005664Y002299D01*
X005866Y002299D01*
X005866Y002335D02*
X005903Y002335D01*
X005903Y002494D02*
X005866Y002494D01*
X005866Y002652D02*
X005903Y002652D01*
X006262Y002652D02*
X006375Y002652D01*
X006375Y002811D02*
X006262Y002811D01*
X006253Y002969D02*
X006375Y002969D01*
X006375Y003128D02*
X006222Y003128D01*
X005548Y003128D02*
X005494Y003128D01*
X005494Y002969D02*
X005517Y002969D01*
X005508Y002811D02*
X005494Y002811D01*
X005494Y002652D02*
X005508Y002652D01*
X005494Y002494D02*
X005508Y002494D01*
X005494Y002335D02*
X005578Y002335D01*
X004937Y002692D02*
X004865Y002620D01*
X004805Y002559D01*
X004466Y002559D01*
X004466Y002596D01*
X004825Y002596D01*
X004825Y002818D01*
X004812Y002864D01*
X004789Y002905D01*
X004755Y002938D01*
X004752Y002940D01*
X004785Y002973D01*
X004785Y003025D01*
X004852Y003025D01*
X004937Y003109D01*
X004937Y002692D01*
X004897Y002652D02*
X004825Y002652D01*
X004825Y002811D02*
X004937Y002811D01*
X004937Y002969D02*
X004781Y002969D01*
X004429Y002596D02*
X004429Y002559D01*
X004071Y002559D01*
X004071Y002338D01*
X004083Y002292D01*
X004107Y002251D01*
X004140Y002217D01*
X004181Y002193D01*
X004196Y002190D01*
X004180Y002173D01*
X004180Y001545D01*
X004230Y001495D01*
X004180Y001445D01*
X004180Y001311D01*
X004135Y001311D01*
X004135Y001435D01*
X004102Y001467D01*
X004105Y001469D01*
X004139Y001503D01*
X004163Y001544D01*
X004175Y001589D01*
X004175Y001811D01*
X003817Y001811D01*
X003817Y001848D01*
X004175Y001848D01*
X004175Y002070D01*
X004163Y002116D01*
X004139Y002157D01*
X004105Y002190D01*
X004064Y002214D01*
X004019Y002226D01*
X003957Y002226D01*
X003981Y002251D01*
X004005Y002292D01*
X004017Y002338D01*
X004017Y002559D01*
X003659Y002559D01*
X003659Y002596D01*
X004017Y002596D01*
X004017Y002725D01*
X004071Y002725D01*
X004071Y002596D01*
X004429Y002596D01*
X004071Y002652D02*
X004017Y002652D01*
X004017Y002494D02*
X004071Y002494D01*
X004071Y002335D02*
X004017Y002335D01*
X004119Y002177D02*
X004183Y002177D01*
X004175Y002018D02*
X004180Y002018D01*
X004175Y001860D02*
X004180Y001860D01*
X004175Y001701D02*
X004180Y001701D01*
X004182Y001543D02*
X004162Y001543D01*
X004180Y001384D02*
X004135Y001384D01*
X004135Y000909D02*
X004180Y000909D01*
X004247Y000750D02*
X000356Y000750D01*
X000356Y000909D02*
X002496Y000909D01*
X002506Y000898D02*
X002547Y000875D01*
X002593Y000862D01*
X002795Y000862D01*
X002795Y001240D01*
X002437Y001240D01*
X002437Y001019D01*
X002449Y000973D01*
X002473Y000932D01*
X002506Y000898D01*
X002437Y001067D02*
X002031Y001067D01*
X002023Y001052D02*
X002046Y001093D01*
X002059Y001139D01*
X002059Y001393D01*
X001149Y001393D01*
X001149Y000983D01*
X001902Y000983D01*
X001948Y000995D01*
X001989Y001019D01*
X002023Y001052D01*
X002059Y001226D02*
X002437Y001226D01*
X002437Y001384D02*
X002059Y001384D01*
X002795Y001226D02*
X002832Y001226D01*
X002832Y001067D02*
X002795Y001067D01*
X002795Y000909D02*
X002832Y000909D01*
X003132Y000909D02*
X003461Y000909D01*
X003461Y001067D02*
X003191Y001067D01*
X003191Y001226D02*
X003461Y001226D01*
X003461Y001384D02*
X003191Y001384D01*
X003334Y001543D02*
X003434Y001543D01*
X003421Y001701D02*
X003334Y001701D01*
X003334Y001860D02*
X003421Y001860D01*
X003421Y002018D02*
X003334Y002018D01*
X003334Y002177D02*
X003477Y002177D01*
X005003Y001067D02*
X005085Y001067D01*
X005085Y000909D02*
X004873Y000909D01*
X004806Y000750D02*
X005152Y000750D01*
X006221Y000909D02*
X006257Y000909D01*
X006257Y001067D02*
X006221Y001067D01*
X006787Y000592D02*
X000356Y000592D01*
X000356Y000433D02*
X010285Y000433D01*
X010060Y000592D02*
X008149Y000592D01*
X008149Y000750D02*
X009976Y000750D01*
X009950Y000909D02*
X008149Y000909D01*
X008103Y001067D02*
X009972Y001067D01*
X010052Y001226D02*
X008149Y001226D01*
X008149Y001384D02*
X010266Y001384D01*
X010009Y001543D02*
X008149Y001543D01*
X008076Y001701D02*
X009839Y001701D01*
X009872Y002335D02*
X010062Y002335D01*
X010101Y002494D02*
X009714Y002494D01*
X009555Y002652D02*
X009976Y002652D01*
X009920Y002811D02*
X009432Y002811D01*
X009432Y002969D02*
X009912Y002969D01*
X009953Y003128D02*
X009419Y003128D01*
X009295Y003286D02*
X010056Y003286D01*
X010318Y003445D02*
X009137Y003445D01*
X008929Y003603D02*
X011123Y003603D01*
X011123Y003445D02*
X010602Y003445D01*
X010480Y003445D02*
X010440Y003445D01*
X010440Y003286D02*
X010480Y003286D01*
X010480Y003128D02*
X010440Y003128D01*
X010440Y002969D02*
X010480Y002969D01*
X010864Y003286D02*
X011124Y003286D01*
X011125Y003128D02*
X010968Y003128D01*
X011008Y002969D02*
X011126Y002969D01*
X011126Y002811D02*
X011001Y002811D01*
X010945Y002652D02*
X011127Y002652D01*
X011128Y002494D02*
X010819Y002494D01*
X010659Y002335D02*
X011128Y002335D01*
X011129Y002177D02*
X010803Y002177D01*
X010869Y002018D02*
X011130Y002018D01*
X011130Y001860D02*
X010870Y001860D01*
X010825Y001701D02*
X011131Y001701D01*
X011132Y001543D02*
X010712Y001543D01*
X010654Y001384D02*
X011132Y001384D01*
X011133Y001226D02*
X010868Y001226D01*
X010948Y001067D02*
X011134Y001067D01*
X011134Y000909D02*
X010970Y000909D01*
X010945Y000750D02*
X011135Y000750D01*
X011136Y000592D02*
X010861Y000592D01*
X010636Y000433D02*
X011137Y000433D01*
X007671Y001701D02*
X007501Y001701D01*
X007390Y001860D02*
X007725Y001860D01*
X007554Y001543D02*
X007501Y001543D01*
X007501Y001384D02*
X007554Y001384D01*
X007554Y001226D02*
X007498Y001226D01*
X007461Y001067D02*
X007599Y001067D01*
X007554Y000592D02*
X007461Y000592D01*
X007142Y001543D02*
X007105Y001543D01*
X007105Y001701D02*
X007142Y001701D01*
X007142Y001860D02*
X007105Y001860D01*
X007048Y002494D02*
X007201Y002494D01*
X008474Y003795D02*
X008524Y003795D01*
X008524Y004154D01*
X008561Y004154D01*
X008561Y004191D01*
X008939Y004191D01*
X008939Y004393D01*
X008926Y004439D01*
X008903Y004480D01*
X008869Y004513D01*
X008828Y004537D01*
X008782Y004549D01*
X008561Y004549D01*
X008561Y004191D01*
X008524Y004191D01*
X008524Y004310D01*
X008554Y004340D01*
X008554Y004662D01*
X008563Y004662D01*
X008563Y005020D01*
X008600Y005020D01*
X008600Y005057D01*
X008975Y005057D01*
X009016Y005016D01*
X009998Y005016D01*
X010080Y005099D01*
X010080Y005268D01*
X010094Y005268D01*
X010094Y005173D01*
X010127Y005141D01*
X010124Y005139D01*
X010090Y005106D01*
X010066Y005065D01*
X010054Y005019D01*
X010054Y004797D01*
X010413Y004797D01*
X010413Y004760D01*
X010449Y004760D01*
X010449Y004382D01*
X010652Y004382D01*
X010697Y004394D01*
X010738Y004418D01*
X010772Y004452D01*
X010796Y004493D01*
X010808Y004538D01*
X010808Y004760D01*
X010449Y004760D01*
X010449Y004797D01*
X010808Y004797D01*
X010808Y005019D01*
X010796Y005065D01*
X010772Y005106D01*
X010738Y005139D01*
X010735Y005141D01*
X010768Y005173D01*
X010768Y005723D01*
X010686Y005805D01*
X010176Y005805D01*
X010094Y005723D01*
X010094Y005628D01*
X010080Y005628D01*
X010080Y005726D01*
X009998Y005808D01*
X009154Y005808D01*
X009154Y006473D01*
X009998Y006473D01*
X010080Y006555D01*
X010080Y006573D01*
X010157Y006496D01*
X010667Y006496D01*
X010749Y006578D01*
X010749Y007127D01*
X010717Y007159D01*
X010720Y007161D01*
X010753Y007194D01*
X010777Y007236D01*
X010789Y007281D01*
X010789Y007503D01*
X010431Y007503D01*
X010431Y007540D01*
X010789Y007540D01*
X010789Y007762D01*
X010777Y007808D01*
X010753Y007849D01*
X010720Y007882D01*
X010679Y007906D01*
X010633Y007918D01*
X010431Y007918D01*
X010431Y007540D01*
X010394Y007540D01*
X010394Y007918D01*
X010192Y007918D01*
X010146Y007906D01*
X010105Y007882D01*
X010071Y007849D01*
X010048Y007808D01*
X010035Y007762D01*
X010035Y007540D01*
X010394Y007540D01*
X010394Y007503D01*
X010035Y007503D01*
X010035Y007281D01*
X010048Y007236D01*
X010071Y007194D01*
X010105Y007161D01*
X010108Y007159D01*
X010080Y007131D01*
X010080Y007183D01*
X009998Y007265D01*
X009035Y007265D01*
X009833Y008062D01*
X009891Y008004D01*
X010079Y007926D01*
X010281Y007926D01*
X010469Y008004D01*
X010612Y008148D01*
X010690Y008335D01*
X010690Y008538D01*
X010612Y008725D01*
X010469Y008869D01*
X010281Y008946D01*
X010079Y008946D01*
X009891Y008869D01*
X009748Y008725D01*
X009690Y008586D01*
X009690Y008638D01*
X009612Y008825D01*
X009469Y008969D01*
X009281Y009046D01*
X009079Y009046D01*
X008891Y008969D01*
X008748Y008825D01*
X008670Y008638D01*
X008670Y008586D01*
X008612Y008725D01*
X008469Y008869D01*
X008281Y008946D01*
X008079Y008946D01*
X007891Y008869D01*
X007748Y008725D01*
X007690Y008586D01*
X007690Y008638D01*
X007612Y008825D01*
X007469Y008969D01*
X007281Y009046D01*
X007079Y009046D01*
X006891Y008969D01*
X006748Y008825D01*
X006670Y008638D01*
X006670Y008586D01*
X006612Y008725D01*
X006469Y008869D01*
X006281Y008946D01*
X006079Y008946D01*
X005891Y008869D01*
X005748Y008725D01*
X005690Y008586D01*
X005690Y008638D01*
X005612Y008825D01*
X005469Y008969D01*
X005281Y009046D01*
X005079Y009046D01*
X004891Y008969D01*
X004748Y008825D01*
X004670Y008638D01*
X004670Y008586D01*
X004612Y008725D01*
X004469Y008869D01*
X004281Y008946D01*
X004079Y008946D01*
X003891Y008869D01*
X003748Y008725D01*
X003690Y008586D01*
X003690Y008638D01*
X003612Y008825D01*
X003469Y008969D01*
X003281Y009046D01*
X003079Y009046D01*
X002891Y008969D01*
X002748Y008825D01*
X002670Y008638D01*
X002670Y008586D01*
X002612Y008725D01*
X002469Y008869D01*
X002281Y008946D01*
X002079Y008946D01*
X001891Y008869D01*
X001748Y008725D01*
X001702Y008615D01*
X001690Y008615D01*
X001690Y008638D01*
X001612Y008825D01*
X001469Y008969D01*
X001281Y009046D01*
X001079Y009046D01*
X000891Y008969D01*
X000748Y008825D01*
X000670Y008638D01*
X000670Y008435D01*
X000748Y008248D01*
X000891Y008104D01*
X001079Y008026D01*
X001264Y008026D01*
X002025Y007266D01*
X001946Y007266D01*
X001946Y006888D01*
X001910Y006888D01*
X001910Y007266D01*
X001707Y007266D01*
X001662Y007253D01*
X001621Y007230D01*
X001587Y007196D01*
X001563Y007155D01*
X001551Y007109D01*
X001551Y006888D01*
X001910Y006888D01*
X001910Y006851D01*
X001551Y006851D01*
X001551Y006695D01*
X001498Y006695D01*
X001498Y006851D01*
X001139Y006851D01*
X001139Y006888D01*
X001102Y006888D01*
X001102Y007266D01*
X000900Y007266D01*
X000855Y007253D01*
X000814Y007230D01*
X000780Y007196D01*
X000756Y007155D01*
X000744Y007109D01*
X000744Y006888D01*
X001102Y006888D01*
X001102Y006851D01*
X000744Y006851D01*
X000744Y006640D01*
X000694Y006589D01*
X000694Y004280D01*
X000799Y004175D01*
X001114Y004175D01*
X001114Y003533D01*
X001114Y003603D02*
X001009Y003603D01*
X001009Y003762D02*
X001114Y003762D01*
X001114Y003920D02*
X001009Y003920D01*
X001114Y004079D02*
X000356Y004079D01*
X000356Y004237D02*
X000736Y004237D01*
X000694Y004396D02*
X000356Y004396D01*
X000356Y004554D02*
X000694Y004554D01*
X000694Y004713D02*
X000356Y004713D01*
X000356Y004871D02*
X000694Y004871D01*
X000694Y005030D02*
X000356Y005030D01*
X000356Y005188D02*
X000694Y005188D01*
X000694Y005347D02*
X000356Y005347D01*
X000356Y005505D02*
X000694Y005505D01*
X000694Y005664D02*
X000356Y005664D01*
X000356Y005822D02*
X000694Y005822D01*
X000694Y005981D02*
X000356Y005981D01*
X000356Y006139D02*
X000694Y006139D01*
X000694Y006298D02*
X000356Y006298D01*
X000356Y006456D02*
X000694Y006456D01*
X000719Y006615D02*
X000356Y006615D01*
X000356Y006773D02*
X000744Y006773D01*
X000744Y006932D02*
X000356Y006932D01*
X000356Y007090D02*
X000744Y007090D01*
X000846Y007249D02*
X000356Y007249D01*
X000356Y007407D02*
X001883Y007407D01*
X001725Y007566D02*
X000356Y007566D01*
X000356Y007724D02*
X001566Y007724D01*
X001408Y007883D02*
X000356Y007883D01*
X000356Y008041D02*
X001043Y008041D01*
X000795Y008200D02*
X000356Y008200D01*
X000356Y008358D02*
X000702Y008358D01*
X000670Y008517D02*
X000356Y008517D01*
X000356Y008675D02*
X000685Y008675D01*
X000756Y008834D02*
X000356Y008834D01*
X000356Y008992D02*
X000947Y008992D01*
X001412Y008992D02*
X002947Y008992D01*
X002756Y008834D02*
X002504Y008834D01*
X002633Y008675D02*
X002685Y008675D01*
X003412Y008992D02*
X004947Y008992D01*
X004756Y008834D02*
X004504Y008834D01*
X004633Y008675D02*
X004685Y008675D01*
X005412Y008992D02*
X006947Y008992D01*
X006756Y008834D02*
X006504Y008834D01*
X006633Y008675D02*
X006685Y008675D01*
X007412Y008992D02*
X008947Y008992D01*
X008756Y008834D02*
X008504Y008834D01*
X008633Y008675D02*
X008685Y008675D01*
X008690Y008387D02*
X008748Y008248D01*
X008891Y008104D01*
X008948Y008081D01*
X006734Y005867D01*
X006734Y005886D01*
X006722Y005932D01*
X006698Y005973D01*
X006665Y006006D01*
X006623Y006030D01*
X006578Y006042D01*
X006397Y006042D01*
X006397Y005806D01*
X006396Y005806D01*
X006396Y006042D01*
X006297Y006042D01*
X006297Y006312D01*
X006364Y006394D01*
X006697Y006061D01*
X006813Y006061D01*
X007201Y006450D01*
X007201Y006496D01*
X007205Y006495D01*
X007252Y006495D01*
X007298Y006507D01*
X007339Y006531D01*
X007496Y006687D01*
X007242Y006941D01*
X007268Y006967D01*
X007522Y006714D01*
X007679Y006870D01*
X007702Y006911D01*
X007715Y006957D01*
X007715Y007005D01*
X007702Y007050D01*
X007679Y007091D01*
X007536Y007234D01*
X007268Y006967D01*
X007242Y006993D01*
X007216Y006967D01*
X006963Y007220D01*
X006806Y007064D01*
X006782Y007023D01*
X006770Y006977D01*
X006770Y006929D01*
X006771Y006926D01*
X006725Y006926D01*
X006661Y006862D01*
X006648Y006875D01*
X006643Y006875D01*
X006640Y006878D01*
X006569Y006875D01*
X006558Y006875D01*
X007337Y007654D01*
X007652Y007654D01*
X007970Y007972D01*
X008079Y007926D01*
X008281Y007926D01*
X008469Y008004D01*
X008612Y008148D01*
X008690Y008335D01*
X008690Y008387D01*
X008690Y008358D02*
X008702Y008358D01*
X008634Y008200D02*
X008795Y008200D01*
X008908Y008041D02*
X008506Y008041D01*
X008750Y007883D02*
X007881Y007883D01*
X007722Y007724D02*
X008591Y007724D01*
X008433Y007566D02*
X007249Y007566D01*
X007233Y007439D02*
X007187Y007427D01*
X007146Y007403D01*
X006989Y007246D01*
X007242Y006993D01*
X007510Y007260D01*
X007367Y007403D01*
X007326Y007427D01*
X007280Y007439D01*
X007233Y007439D01*
X007152Y007407D02*
X007091Y007407D01*
X006991Y007249D02*
X006932Y007249D01*
X006833Y007090D02*
X006774Y007090D01*
X006770Y006932D02*
X006615Y006932D01*
X007093Y007090D02*
X007145Y007090D01*
X007252Y006932D02*
X007304Y006932D01*
X007339Y007090D02*
X007392Y007090D01*
X007498Y007249D02*
X008116Y007249D01*
X008274Y007407D02*
X007360Y007407D01*
X007680Y007090D02*
X007957Y007090D01*
X007799Y006932D02*
X007708Y006932D01*
X007640Y006773D02*
X007581Y006773D01*
X007462Y006773D02*
X007410Y006773D01*
X007423Y006615D02*
X007482Y006615D01*
X007323Y006456D02*
X007201Y006456D01*
X007165Y006298D02*
X007049Y006298D01*
X007006Y006139D02*
X006891Y006139D01*
X006848Y005981D02*
X006690Y005981D01*
X006620Y006139D02*
X006297Y006139D01*
X006297Y006298D02*
X006461Y006298D01*
X006396Y005981D02*
X006397Y005981D01*
X006396Y005822D02*
X006397Y005822D01*
X005941Y005197D02*
X005492Y005197D01*
X005492Y005665D01*
X005332Y005665D01*
X005332Y005197D01*
X004864Y005197D01*
X004864Y005037D01*
X005332Y005037D01*
X005332Y005197D01*
X005492Y005197D01*
X005492Y005037D01*
X005492Y004588D01*
X005332Y004588D01*
X005332Y005037D01*
X005492Y005037D01*
X005941Y005037D01*
X005941Y005197D01*
X005941Y005188D02*
X005492Y005188D01*
X005492Y005030D02*
X005332Y005030D01*
X005332Y004871D02*
X005492Y004871D01*
X005492Y004713D02*
X005332Y004713D01*
X005332Y005188D02*
X004864Y005188D01*
X005332Y005347D02*
X005492Y005347D01*
X005492Y005505D02*
X005332Y005505D01*
X005332Y005664D02*
X005492Y005664D01*
X004428Y005664D02*
X004428Y005664D01*
X004428Y005609D02*
X004428Y005795D01*
X004428Y005795D01*
X004428Y005609D01*
X004428Y005609D01*
X005708Y004133D02*
X005904Y004133D01*
X005904Y004133D01*
X005708Y004133D01*
X005708Y004133D01*
X008524Y004079D02*
X008561Y004079D01*
X008561Y004154D02*
X008561Y003795D01*
X008782Y003795D01*
X008828Y003808D01*
X008869Y003831D01*
X008903Y003865D01*
X008926Y003906D01*
X008939Y003952D01*
X008939Y004154D01*
X008561Y004154D01*
X008561Y004237D02*
X008524Y004237D01*
X008554Y004396D02*
X008561Y004396D01*
X008554Y004554D02*
X010054Y004554D01*
X010054Y004538D02*
X010066Y004493D01*
X010090Y004452D01*
X010124Y004418D01*
X010165Y004394D01*
X010210Y004382D01*
X010413Y004382D01*
X010413Y004760D01*
X010054Y004760D01*
X010054Y004538D01*
X010163Y004396D02*
X008938Y004396D01*
X008939Y004237D02*
X011120Y004237D01*
X011121Y004079D02*
X008939Y004079D01*
X008930Y003920D02*
X011121Y003920D01*
X011122Y003762D02*
X008507Y003762D01*
X008524Y003920D02*
X008561Y003920D01*
X008600Y004662D02*
X008822Y004662D01*
X008868Y004674D01*
X008909Y004698D01*
X008942Y004731D01*
X008966Y004772D01*
X008978Y004818D01*
X008978Y005020D01*
X008600Y005020D01*
X008600Y004662D01*
X008600Y004713D02*
X008563Y004713D01*
X008563Y004871D02*
X008600Y004871D01*
X008600Y005030D02*
X009003Y005030D01*
X008978Y004871D02*
X010054Y004871D01*
X010057Y005030D02*
X010011Y005030D01*
X010080Y005188D02*
X010094Y005188D01*
X010080Y005664D02*
X010094Y005664D01*
X010768Y005664D02*
X011114Y005664D01*
X011113Y005822D02*
X009154Y005822D01*
X009154Y005981D02*
X011112Y005981D01*
X011112Y006139D02*
X009154Y006139D01*
X009154Y006298D02*
X011111Y006298D01*
X011110Y006456D02*
X009154Y006456D01*
X010014Y007249D02*
X010044Y007249D01*
X010035Y007407D02*
X009177Y007407D01*
X009336Y007566D02*
X010035Y007566D01*
X010035Y007724D02*
X009494Y007724D01*
X009653Y007883D02*
X010106Y007883D01*
X010394Y007883D02*
X010431Y007883D01*
X010506Y008041D02*
X011104Y008041D01*
X011104Y007883D02*
X010719Y007883D01*
X010789Y007724D02*
X011105Y007724D01*
X011106Y007566D02*
X010789Y007566D01*
X010789Y007407D02*
X011106Y007407D01*
X011107Y007249D02*
X010780Y007249D01*
X010749Y007090D02*
X011108Y007090D01*
X011108Y006932D02*
X010749Y006932D01*
X010749Y006773D02*
X011109Y006773D01*
X011110Y006615D02*
X010749Y006615D01*
X010431Y007566D02*
X010394Y007566D01*
X010394Y007724D02*
X010431Y007724D01*
X010634Y008200D02*
X011103Y008200D01*
X011102Y008358D02*
X010690Y008358D01*
X010690Y008517D02*
X011101Y008517D01*
X011101Y008675D02*
X010633Y008675D01*
X010504Y008834D02*
X011100Y008834D01*
X011099Y008992D02*
X009412Y008992D01*
X009604Y008834D02*
X009856Y008834D01*
X009727Y008675D02*
X009675Y008675D01*
X009811Y008041D02*
X009854Y008041D01*
X007856Y008834D02*
X007604Y008834D01*
X007675Y008675D02*
X007727Y008675D01*
X005856Y008834D02*
X005604Y008834D01*
X005675Y008675D02*
X005727Y008675D01*
X003856Y008834D02*
X003604Y008834D01*
X003675Y008675D02*
X003727Y008675D01*
X001946Y007249D02*
X001910Y007249D01*
X001910Y007090D02*
X001946Y007090D01*
X001946Y006932D02*
X001910Y006932D01*
X001946Y006888D02*
X002305Y006888D01*
X002305Y006986D01*
X002596Y006695D01*
X002305Y006695D01*
X002305Y006851D01*
X001946Y006851D01*
X001946Y006888D01*
X002305Y006932D02*
X002359Y006932D01*
X002305Y006773D02*
X002517Y006773D01*
X001653Y007249D02*
X001395Y007249D01*
X001387Y007253D02*
X001341Y007266D01*
X001139Y007266D01*
X001139Y006888D01*
X001498Y006888D01*
X001498Y007109D01*
X001485Y007155D01*
X001462Y007196D01*
X001428Y007230D01*
X001387Y007253D01*
X001498Y007090D02*
X001551Y007090D01*
X001551Y006932D02*
X001498Y006932D01*
X001498Y006773D02*
X001551Y006773D01*
X001139Y006932D02*
X001102Y006932D01*
X001102Y007090D02*
X001139Y007090D01*
X001139Y007249D02*
X001102Y007249D01*
X001675Y008675D02*
X001727Y008675D01*
X001604Y008834D02*
X001856Y008834D01*
X008924Y004713D02*
X010054Y004713D01*
X010413Y004713D02*
X010449Y004713D01*
X010449Y004554D02*
X010413Y004554D01*
X010413Y004396D02*
X010449Y004396D01*
X010699Y004396D02*
X011119Y004396D01*
X011119Y004554D02*
X010808Y004554D01*
X010808Y004713D02*
X011118Y004713D01*
X011117Y004871D02*
X010808Y004871D01*
X010805Y005030D02*
X011117Y005030D01*
X011116Y005188D02*
X010768Y005188D01*
X010768Y005347D02*
X011115Y005347D01*
X011115Y005505D02*
X010768Y005505D01*
X001149Y001384D02*
X001009Y001384D01*
X001009Y001226D02*
X001149Y001226D01*
X001149Y001067D02*
X001009Y001067D01*
D22*
X000885Y000747D03*
X001515Y000747D03*
X002184Y000747D03*
X003286Y000668D03*
X004172Y000649D03*
X004979Y000668D03*
X006233Y000565D03*
X006809Y002125D03*
X007261Y002125D03*
X007733Y002125D03*
X008573Y001405D03*
X009233Y001405D03*
X009353Y000505D03*
X009430Y003578D03*
X009430Y004183D03*
X010114Y003979D03*
X010828Y003951D03*
X009441Y004770D03*
X010924Y006219D03*
X009546Y007440D03*
X008319Y007715D03*
X007988Y007376D03*
X007516Y007500D03*
X005845Y005550D03*
X005412Y005550D03*
X004979Y005550D03*
X004979Y005117D03*
X004979Y004684D03*
X005412Y004684D03*
X005412Y005117D03*
X005845Y005117D03*
X005845Y004684D03*
X004074Y004094D03*
X000527Y004177D03*
X000505Y005218D03*
X000505Y006439D03*
X000727Y007597D03*
X001278Y007597D03*
X010885Y007912D03*
D23*
X010180Y008436D02*
X010089Y008345D01*
X009861Y008345D01*
X006928Y005412D01*
X006396Y005412D01*
X006396Y005216D02*
X007085Y005216D01*
X008739Y006869D01*
X009507Y006869D01*
X010395Y006869D01*
X010412Y006852D01*
X009507Y006869D02*
X009507Y006869D01*
X009152Y008031D02*
X009152Y008509D01*
X009180Y008536D01*
X009152Y008031D02*
X006731Y005609D01*
X006396Y005609D01*
X006101Y006101D02*
X006101Y006357D01*
X006376Y006692D01*
X006514Y006692D01*
X006574Y006695D01*
X006568Y006695D01*
X006769Y006494D01*
X005904Y006475D02*
X005904Y006101D01*
X005708Y006101D02*
X005708Y006672D01*
X007184Y008149D01*
X007184Y008532D01*
X007180Y008536D01*
X007263Y007834D02*
X007577Y007834D01*
X008180Y008436D01*
X007263Y007834D02*
X005904Y006475D01*
X005511Y006751D02*
X006160Y007401D01*
X006160Y008417D01*
X006180Y008436D01*
X005180Y008536D02*
X005176Y008532D01*
X005176Y007322D01*
X005314Y007184D01*
X005314Y006101D01*
X005511Y006101D02*
X005511Y006751D01*
X005117Y006633D02*
X004192Y007558D01*
X004192Y008425D01*
X004180Y008436D01*
X003180Y008536D02*
X003168Y008525D01*
X003168Y008267D01*
X004900Y006534D01*
X004900Y006121D01*
X004920Y006101D01*
X005117Y006101D02*
X005117Y006633D01*
X004723Y006397D02*
X003641Y007479D01*
X003137Y007479D01*
X002180Y008436D01*
X001180Y008365D02*
X004133Y005412D01*
X004428Y005412D01*
X004428Y005412D01*
X004428Y005216D02*
X004015Y005216D01*
X003011Y006219D01*
X001928Y006219D01*
X001928Y006200D01*
X001495Y006200D01*
X001515Y006180D01*
X001515Y005668D01*
X001456Y005609D01*
X001475Y005531D01*
X002145Y005531D02*
X002814Y005531D01*
X003365Y005550D01*
X003896Y005019D01*
X004428Y005019D01*
X004428Y005019D01*
X004428Y004822D02*
X002853Y004822D01*
X002814Y004861D01*
X002814Y004330D01*
X002814Y003660D02*
X002814Y003129D01*
X002814Y002460D02*
X002814Y001928D01*
X003798Y001160D02*
X003828Y001131D01*
X004526Y001131D01*
X004556Y001101D01*
X004782Y001101D01*
X004940Y001259D01*
X004940Y002440D01*
X005117Y002617D01*
X005117Y004133D01*
X005314Y004133D02*
X005314Y001977D01*
X005432Y001859D01*
X005461Y001830D01*
X006239Y001830D01*
X006711Y002696D02*
X007538Y002696D01*
X007538Y003365D02*
X007519Y003385D01*
X007302Y003385D01*
X006908Y003779D01*
X006180Y003779D01*
X006101Y003857D01*
X006101Y004133D01*
X006396Y004625D02*
X007125Y004625D01*
X007558Y004192D01*
X007853Y004192D01*
X007873Y004172D01*
X007400Y004822D02*
X007617Y005038D01*
X007912Y005038D01*
X007912Y005038D01*
X007714Y005435D02*
X009485Y005435D01*
X009507Y005412D01*
X009542Y005448D01*
X010431Y005448D01*
X009507Y005412D02*
X009507Y005570D01*
X007714Y005435D02*
X007298Y005019D01*
X006396Y005019D01*
X006396Y004822D02*
X007400Y004822D01*
X006711Y003365D02*
X005885Y003365D01*
X005629Y003365D01*
X005511Y003483D01*
X005511Y004113D01*
X005511Y004113D01*
X005511Y004133D01*
X004723Y004133D02*
X004723Y003838D01*
X004664Y003779D01*
X003759Y003779D01*
X003641Y003660D01*
X003641Y003247D01*
X004428Y003247D02*
X004448Y003247D01*
X004448Y003267D01*
X004428Y004428D02*
X004174Y004428D01*
X005373Y005117D02*
X005412Y005117D01*
X005373Y005117D01*
X004723Y006101D02*
X004723Y006397D01*
X001495Y006200D02*
X001121Y006200D01*
X001180Y008365D02*
X001180Y008536D01*
X007851Y001731D02*
X008032Y001912D01*
X010137Y001912D01*
X007851Y001731D02*
X007851Y001397D01*
X007851Y000806D02*
X007124Y000806D01*
D24*
X008365Y003365D02*
X008365Y003621D01*
X008247Y003739D01*
X007479Y003739D01*
X006790Y004428D01*
X006397Y004428D01*
X006396Y004428D01*
X005904Y004625D02*
X005904Y004133D01*
X005904Y004625D02*
X005845Y004684D01*
X004979Y004684D02*
X004920Y004625D01*
X004428Y004625D01*
X004428Y005609D02*
X004428Y005806D01*
X004428Y005609D02*
X004920Y005609D01*
X004979Y005550D01*
D25*
X002814Y002460D02*
X001145Y002460D01*
X001079Y002463D01*
D26*
X008365Y003365D02*
X008365Y003365D01*
X008877Y003365D01*
X009192Y003050D01*
X009192Y002676D01*
X009956Y001912D01*
X010137Y001912D01*
X010360Y001912D01*
D27*
X004920Y003361D02*
X004774Y003215D01*
X004480Y003215D01*
X004448Y003247D01*
X004448Y002991D01*
X004371Y002915D01*
X003334Y002915D01*
X003274Y002975D01*
X003274Y003875D01*
X003827Y004428D01*
X004174Y004428D01*
X004074Y004328D01*
X004074Y004094D01*
X004920Y004133D02*
X004920Y003361D01*
M02*
