G75*
G70*
%OFA0B0*%
%FSLAX24Y24*%
%IPPOS*%
%LPD*%
%AMOC8*
5,1,8,0,0,1.08239X$1,22.5*
%
%ADD10C,0.0740*%
%ADD11R,0.1600X0.0600*%
%ADD12C,0.0160*%
%ADD13C,0.0356*%
%ADD14C,0.0080*%
%ADD15C,0.0200*%
D10*
X002180Y008436D03*
X003180Y008536D03*
X004180Y008436D03*
X005180Y008536D03*
X006180Y008436D03*
X007180Y008536D03*
X008180Y008436D03*
X009180Y008536D03*
X010180Y008436D03*
X010460Y002912D03*
X010360Y001912D03*
X010460Y000912D03*
X001180Y008536D03*
D11*
X001079Y003463D03*
X001079Y001463D03*
D12*
X000356Y000983D02*
X000356Y000336D01*
X011137Y000336D01*
X011099Y009052D01*
X000356Y009071D01*
X000356Y003943D01*
X001009Y003943D01*
X001009Y003533D01*
X001149Y003533D01*
X001149Y003943D01*
X001902Y003943D01*
X001948Y003930D01*
X001989Y003907D01*
X002023Y003873D01*
X002046Y003832D01*
X002059Y003786D01*
X002059Y003533D01*
X001149Y003533D01*
X001149Y003393D01*
X002059Y003393D01*
X002059Y003139D01*
X002046Y003093D01*
X002023Y003052D01*
X001989Y003019D01*
X001948Y002995D01*
X001902Y002983D01*
X001149Y002983D01*
X001149Y003393D01*
X001009Y003393D01*
X001009Y002983D01*
X000356Y002983D01*
X000356Y001943D01*
X001009Y001943D01*
X001009Y001533D01*
X001149Y001533D01*
X001149Y001943D01*
X001902Y001943D01*
X001948Y001930D01*
X001989Y001907D01*
X002023Y001873D01*
X002046Y001832D01*
X002059Y001786D01*
X002059Y001533D01*
X001149Y001533D01*
X001149Y001393D01*
X002059Y001393D01*
X002059Y001139D01*
X002046Y001093D01*
X002023Y001052D01*
X001989Y001019D01*
X001948Y000995D01*
X001902Y000983D01*
X001149Y000983D01*
X001149Y001393D01*
X001009Y001393D01*
X001009Y000983D01*
X000356Y000983D01*
X000356Y000909D02*
X006592Y000909D01*
X006420Y001067D02*
X002031Y001067D01*
X002059Y001226D02*
X006247Y001226D01*
X006074Y001384D02*
X002059Y001384D01*
X002059Y001543D02*
X005901Y001543D01*
X005728Y001701D02*
X002059Y001701D01*
X002031Y001860D02*
X005555Y001860D01*
X005382Y002018D02*
X000356Y002018D01*
X000356Y002177D02*
X005209Y002177D01*
X005036Y002335D02*
X000356Y002335D01*
X000356Y002494D02*
X004863Y002494D01*
X004690Y002652D02*
X000356Y002652D01*
X000356Y002811D02*
X004517Y002811D01*
X004344Y002969D02*
X000356Y002969D01*
X001009Y003128D02*
X001149Y003128D01*
X001149Y003286D02*
X001009Y003286D01*
X001149Y003445D02*
X003854Y003445D01*
X003854Y003446D02*
X003870Y003406D01*
X003874Y003403D01*
X003876Y003398D01*
X003908Y003369D01*
X003938Y003339D01*
X003943Y003337D01*
X006778Y000739D01*
X006808Y000709D01*
X006813Y000707D01*
X006817Y000703D01*
X006857Y000689D01*
X006896Y000672D01*
X006901Y000672D01*
X006906Y000671D01*
X006949Y000672D01*
X010008Y000672D01*
X010028Y000624D01*
X010171Y000480D01*
X010359Y000402D01*
X010562Y000402D01*
X010749Y000480D01*
X010893Y000624D01*
X010970Y000811D01*
X010970Y001014D01*
X010893Y001201D01*
X010749Y001345D01*
X010562Y001422D01*
X010510Y001422D01*
X010649Y001480D01*
X010793Y001624D01*
X010870Y001811D01*
X010870Y002014D01*
X010793Y002201D01*
X010649Y002345D01*
X010578Y002374D01*
X010589Y002376D01*
X010671Y002403D01*
X010749Y002442D01*
X010819Y002493D01*
X010880Y002554D01*
X010931Y002624D01*
X010970Y002701D01*
X010997Y002784D01*
X011010Y002869D01*
X011010Y002892D01*
X010480Y002892D01*
X010480Y002932D01*
X011010Y002932D01*
X011010Y002956D01*
X010997Y003041D01*
X010970Y003124D01*
X010931Y003201D01*
X010880Y003271D01*
X010819Y003332D01*
X010749Y003383D01*
X010671Y003422D01*
X010589Y003449D01*
X010504Y003462D01*
X010480Y003462D01*
X010480Y002932D01*
X010440Y002932D01*
X010440Y002892D01*
X009910Y002892D01*
X009910Y002869D01*
X009924Y002784D01*
X009951Y002701D01*
X009990Y002624D01*
X010041Y002554D01*
X010102Y002493D01*
X010172Y002442D01*
X010232Y002411D01*
X010071Y002345D01*
X009928Y002201D01*
X009850Y002014D01*
X009850Y001811D01*
X009928Y001624D01*
X010071Y001480D01*
X010259Y001402D01*
X010311Y001402D01*
X010171Y001345D01*
X010028Y001201D01*
X010008Y001152D01*
X007037Y001152D01*
X004314Y003648D01*
X004314Y003884D01*
X004343Y003913D01*
X004392Y004030D01*
X004392Y004157D01*
X004343Y004274D01*
X004254Y004363D01*
X004137Y004412D01*
X004010Y004412D01*
X003893Y004363D01*
X003804Y004274D01*
X003756Y004157D01*
X003756Y004030D01*
X003804Y003913D01*
X003834Y003884D01*
X003834Y003585D01*
X003832Y003580D01*
X003834Y003537D01*
X003834Y003495D01*
X003836Y003490D01*
X003836Y003484D01*
X003854Y003446D01*
X003998Y003286D02*
X002059Y003286D01*
X002056Y003128D02*
X004171Y003128D01*
X004536Y003445D02*
X010318Y003445D01*
X010332Y003449D02*
X010249Y003422D01*
X010172Y003383D01*
X010102Y003332D01*
X010041Y003271D01*
X009990Y003201D01*
X009951Y003124D01*
X009924Y003041D01*
X009910Y002956D01*
X009910Y002932D01*
X010440Y002932D01*
X010440Y003462D01*
X010417Y003462D01*
X010332Y003449D01*
X010440Y003445D02*
X010480Y003445D01*
X010602Y003445D02*
X011123Y003445D01*
X011124Y003286D02*
X010864Y003286D01*
X010968Y003128D02*
X011125Y003128D01*
X011126Y002969D02*
X011008Y002969D01*
X011001Y002811D02*
X011126Y002811D01*
X011127Y002652D02*
X010945Y002652D01*
X010819Y002494D02*
X011128Y002494D01*
X011128Y002335D02*
X010659Y002335D01*
X010803Y002177D02*
X011129Y002177D01*
X011130Y002018D02*
X010869Y002018D01*
X010870Y001860D02*
X011130Y001860D01*
X011131Y001701D02*
X010825Y001701D01*
X010712Y001543D02*
X011132Y001543D01*
X011132Y001384D02*
X010654Y001384D01*
X010868Y001226D02*
X011133Y001226D01*
X011134Y001067D02*
X010948Y001067D01*
X010970Y000909D02*
X011134Y000909D01*
X011135Y000750D02*
X010945Y000750D01*
X010861Y000592D02*
X011136Y000592D01*
X011137Y000433D02*
X010636Y000433D01*
X010285Y000433D02*
X000356Y000433D01*
X000356Y000592D02*
X010060Y000592D01*
X010052Y001226D02*
X006957Y001226D01*
X006784Y001384D02*
X010266Y001384D01*
X010009Y001543D02*
X006611Y001543D01*
X006438Y001701D02*
X009896Y001701D01*
X009850Y001860D02*
X006265Y001860D01*
X006092Y002018D02*
X009852Y002018D01*
X009918Y002177D02*
X005919Y002177D01*
X005746Y002335D02*
X010062Y002335D01*
X010101Y002494D02*
X005573Y002494D01*
X005400Y002652D02*
X009976Y002652D01*
X009920Y002811D02*
X005227Y002811D01*
X005054Y002969D02*
X009912Y002969D01*
X009953Y003128D02*
X004881Y003128D01*
X004708Y003286D02*
X010056Y003286D01*
X010440Y003286D02*
X010480Y003286D01*
X010480Y003128D02*
X010440Y003128D01*
X010440Y002969D02*
X010480Y002969D01*
X011123Y003603D02*
X004363Y003603D01*
X004314Y003762D02*
X011122Y003762D01*
X011121Y003920D02*
X004346Y003920D01*
X004392Y004079D02*
X011121Y004079D01*
X011120Y004237D02*
X004359Y004237D01*
X004176Y004396D02*
X011119Y004396D01*
X011119Y004554D02*
X000356Y004554D01*
X000356Y004396D02*
X003972Y004396D01*
X003789Y004237D02*
X000356Y004237D01*
X000356Y004079D02*
X003756Y004079D01*
X003801Y003920D02*
X001966Y003920D01*
X002059Y003762D02*
X003834Y003762D01*
X003834Y003603D02*
X002059Y003603D01*
X001149Y003603D02*
X001009Y003603D01*
X001009Y003762D02*
X001149Y003762D01*
X001149Y003920D02*
X001009Y003920D01*
X000356Y004713D02*
X011118Y004713D01*
X011117Y004871D02*
X000356Y004871D01*
X000356Y005030D02*
X011117Y005030D01*
X011116Y005188D02*
X000356Y005188D01*
X000356Y005347D02*
X011115Y005347D01*
X011115Y005505D02*
X000356Y005505D01*
X000356Y005664D02*
X011114Y005664D01*
X011113Y005822D02*
X000356Y005822D01*
X000356Y005981D02*
X011112Y005981D01*
X011112Y006139D02*
X000356Y006139D01*
X000356Y006298D02*
X011111Y006298D01*
X011110Y006456D02*
X000356Y006456D01*
X000356Y006615D02*
X011110Y006615D01*
X011109Y006773D02*
X000356Y006773D01*
X000356Y006932D02*
X011108Y006932D01*
X011108Y007090D02*
X000356Y007090D01*
X000356Y007249D02*
X011107Y007249D01*
X011106Y007407D02*
X000356Y007407D01*
X000356Y007566D02*
X011106Y007566D01*
X011105Y007724D02*
X000356Y007724D01*
X000356Y007883D02*
X011104Y007883D01*
X011104Y008041D02*
X010506Y008041D01*
X010469Y008004D02*
X010612Y008148D01*
X010690Y008335D01*
X010690Y008538D01*
X010612Y008725D01*
X010469Y008869D01*
X010281Y008946D01*
X010079Y008946D01*
X009891Y008869D01*
X009748Y008725D01*
X009690Y008586D01*
X009690Y008638D01*
X009612Y008825D01*
X009469Y008969D01*
X009281Y009046D01*
X009079Y009046D01*
X008891Y008969D01*
X008748Y008825D01*
X008670Y008638D01*
X008670Y008586D01*
X008612Y008725D01*
X008469Y008869D01*
X008281Y008946D01*
X008079Y008946D01*
X007891Y008869D01*
X007748Y008725D01*
X007690Y008586D01*
X007690Y008638D01*
X007612Y008825D01*
X007469Y008969D01*
X007281Y009046D01*
X007079Y009046D01*
X006891Y008969D01*
X006748Y008825D01*
X006670Y008638D01*
X006670Y008586D01*
X006612Y008725D01*
X006469Y008869D01*
X006281Y008946D01*
X006079Y008946D01*
X005891Y008869D01*
X005748Y008725D01*
X005690Y008586D01*
X005690Y008638D01*
X005612Y008825D01*
X005469Y008969D01*
X005281Y009046D01*
X005079Y009046D01*
X004891Y008969D01*
X004748Y008825D01*
X004670Y008638D01*
X004670Y008586D01*
X004612Y008725D01*
X004469Y008869D01*
X004281Y008946D01*
X004079Y008946D01*
X003891Y008869D01*
X003748Y008725D01*
X003690Y008586D01*
X003690Y008638D01*
X003612Y008825D01*
X003469Y008969D01*
X003281Y009046D01*
X003079Y009046D01*
X002891Y008969D01*
X002748Y008825D01*
X002670Y008638D01*
X002670Y008586D01*
X002612Y008725D01*
X002469Y008869D01*
X002281Y008946D01*
X002079Y008946D01*
X001891Y008869D01*
X001748Y008725D01*
X001690Y008586D01*
X001690Y008638D01*
X001612Y008825D01*
X001469Y008969D01*
X001281Y009046D01*
X001079Y009046D01*
X000891Y008969D01*
X000748Y008825D01*
X000670Y008638D01*
X000670Y008435D01*
X000748Y008248D01*
X000891Y008104D01*
X001079Y008026D01*
X001281Y008026D01*
X001469Y008104D01*
X001612Y008248D01*
X001670Y008387D01*
X001670Y008335D01*
X001748Y008148D01*
X001891Y008004D01*
X002079Y007926D01*
X002281Y007926D01*
X002469Y008004D01*
X002612Y008148D01*
X002690Y008335D01*
X002690Y008387D01*
X002748Y008248D01*
X002891Y008104D01*
X003079Y008026D01*
X003281Y008026D01*
X003469Y008104D01*
X003612Y008248D01*
X003670Y008387D01*
X003670Y008335D01*
X003748Y008148D01*
X003891Y008004D01*
X004079Y007926D01*
X004281Y007926D01*
X004469Y008004D01*
X004612Y008148D01*
X004690Y008335D01*
X004690Y008387D01*
X004748Y008248D01*
X004891Y008104D01*
X005079Y008026D01*
X005281Y008026D01*
X005469Y008104D01*
X005612Y008248D01*
X005670Y008387D01*
X005670Y008335D01*
X005748Y008148D01*
X005891Y008004D01*
X006079Y007926D01*
X006281Y007926D01*
X006469Y008004D01*
X006612Y008148D01*
X006690Y008335D01*
X006690Y008387D01*
X006748Y008248D01*
X006891Y008104D01*
X007079Y008026D01*
X007281Y008026D01*
X007469Y008104D01*
X007612Y008248D01*
X007670Y008387D01*
X007670Y008335D01*
X007748Y008148D01*
X007891Y008004D01*
X008079Y007926D01*
X008281Y007926D01*
X008469Y008004D01*
X008612Y008148D01*
X008690Y008335D01*
X008690Y008387D01*
X008748Y008248D01*
X008891Y008104D01*
X009079Y008026D01*
X009281Y008026D01*
X009469Y008104D01*
X009612Y008248D01*
X009670Y008387D01*
X009670Y008335D01*
X009748Y008148D01*
X009891Y008004D01*
X010079Y007926D01*
X010281Y007926D01*
X010469Y008004D01*
X010634Y008200D02*
X011103Y008200D01*
X011102Y008358D02*
X010690Y008358D01*
X010690Y008517D02*
X011101Y008517D01*
X011101Y008675D02*
X010633Y008675D01*
X010504Y008834D02*
X011100Y008834D01*
X011099Y008992D02*
X009412Y008992D01*
X009604Y008834D02*
X009856Y008834D01*
X009727Y008675D02*
X009675Y008675D01*
X009658Y008358D02*
X009670Y008358D01*
X009726Y008200D02*
X009564Y008200D01*
X009317Y008041D02*
X009854Y008041D01*
X009043Y008041D02*
X008506Y008041D01*
X008634Y008200D02*
X008795Y008200D01*
X008702Y008358D02*
X008690Y008358D01*
X008685Y008675D02*
X008633Y008675D01*
X008756Y008834D02*
X008504Y008834D01*
X008947Y008992D02*
X007412Y008992D01*
X007604Y008834D02*
X007856Y008834D01*
X007727Y008675D02*
X007675Y008675D01*
X007658Y008358D02*
X007670Y008358D01*
X007726Y008200D02*
X007564Y008200D01*
X007317Y008041D02*
X007854Y008041D01*
X007043Y008041D02*
X006506Y008041D01*
X006634Y008200D02*
X006795Y008200D01*
X006702Y008358D02*
X006690Y008358D01*
X006685Y008675D02*
X006633Y008675D01*
X006756Y008834D02*
X006504Y008834D01*
X006947Y008992D02*
X005412Y008992D01*
X005604Y008834D02*
X005856Y008834D01*
X005727Y008675D02*
X005675Y008675D01*
X005658Y008358D02*
X005670Y008358D01*
X005726Y008200D02*
X005564Y008200D01*
X005317Y008041D02*
X005854Y008041D01*
X005043Y008041D02*
X004506Y008041D01*
X004634Y008200D02*
X004795Y008200D01*
X004702Y008358D02*
X004690Y008358D01*
X004685Y008675D02*
X004633Y008675D01*
X004756Y008834D02*
X004504Y008834D01*
X004947Y008992D02*
X003412Y008992D01*
X003604Y008834D02*
X003856Y008834D01*
X003727Y008675D02*
X003675Y008675D01*
X003658Y008358D02*
X003670Y008358D01*
X003726Y008200D02*
X003564Y008200D01*
X003317Y008041D02*
X003854Y008041D01*
X003043Y008041D02*
X002506Y008041D01*
X002634Y008200D02*
X002795Y008200D01*
X002702Y008358D02*
X002690Y008358D01*
X002685Y008675D02*
X002633Y008675D01*
X002756Y008834D02*
X002504Y008834D01*
X002947Y008992D02*
X001412Y008992D01*
X001604Y008834D02*
X001856Y008834D01*
X001727Y008675D02*
X001675Y008675D01*
X001658Y008358D02*
X001670Y008358D01*
X001726Y008200D02*
X001564Y008200D01*
X001317Y008041D02*
X001854Y008041D01*
X001043Y008041D02*
X000356Y008041D01*
X000356Y008200D02*
X000795Y008200D01*
X000702Y008358D02*
X000356Y008358D01*
X000356Y008517D02*
X000670Y008517D01*
X000685Y008675D02*
X000356Y008675D01*
X000356Y008834D02*
X000756Y008834D01*
X000947Y008992D02*
X000356Y008992D01*
X001009Y001860D02*
X001149Y001860D01*
X001149Y001701D02*
X001009Y001701D01*
X001009Y001543D02*
X001149Y001543D01*
X001149Y001384D02*
X001009Y001384D01*
X001009Y001226D02*
X001149Y001226D01*
X001149Y001067D02*
X001009Y001067D01*
X000356Y000750D02*
X006765Y000750D01*
D13*
X006233Y000565D03*
X004979Y000668D03*
X004172Y000649D03*
X003286Y000668D03*
X002184Y000747D03*
X001515Y000747D03*
X000885Y000747D03*
X004074Y004094D03*
X004979Y004684D03*
X004979Y005117D03*
X005412Y005117D03*
X005412Y004684D03*
X005845Y004684D03*
X005845Y005117D03*
X005845Y005550D03*
X005412Y005550D03*
X004979Y005550D03*
X007516Y007500D03*
X007988Y007376D03*
X008319Y007715D03*
X009546Y007440D03*
X010885Y007912D03*
X010924Y006219D03*
X009441Y004770D03*
X009430Y004183D03*
X009430Y003578D03*
X010114Y003979D03*
X010828Y003951D03*
X009233Y001405D03*
X008573Y001405D03*
X007733Y002125D03*
X007261Y002125D03*
X006809Y002125D03*
X009353Y000505D03*
X001278Y007597D03*
X000727Y007597D03*
X000505Y006439D03*
X000505Y005218D03*
X000527Y004177D03*
D14*
X005373Y005038D02*
X005373Y005078D01*
X005412Y005117D01*
D15*
X004074Y004094D02*
X004074Y003542D01*
X006944Y000912D01*
X010460Y000912D01*
M02*
