%
M48
M72
T01C0.0236
T02C0.0400
%
T01
X885Y747
X1515Y747
X2184Y747
X3286Y668
X4172Y649
X4979Y668
X6233Y565
X6809Y2125
X7261Y2125
X7733Y2125
X8573Y1405
X9233Y1405
X9353Y505
X9430Y3578
X9430Y4183
X10114Y3979
X10828Y3951
X9441Y4770
X10924Y6219
X9546Y7440
X8319Y7715
X7988Y7376
X7516Y7500
X5845Y5550
X5412Y5550
X4979Y5550
X4979Y5117
X4979Y4684
X5412Y4684
X5412Y5117
X5845Y5117
X5845Y4684
X4074Y4094
X527Y4177
X505Y5218
X505Y6439
X727Y7597
X1278Y7597
X10885Y7912
T02
X10180Y8436
X9180Y8536
X8180Y8436
X7180Y8536
X6180Y8436
X5180Y8536
X4180Y8436
X3180Y8536
X2180Y8436
X1180Y8536
X10360Y1912
X10460Y912
X10460Y2912
M30
