G75*
G70*
%OFA0B0*%
%FSLAX24Y24*%
%IPPOS*%
%LPD*%
%AMOC8*
5,1,8,0,0,1.08239X$1,22.5*
%
%ADD10R,0.0355X0.0152*%
%ADD11R,0.0152X0.0355*%
%ADD12R,0.1418X0.1418*%
%ADD13R,0.0434X0.0473*%
%ADD14R,0.0473X0.0434*%
%ADD15R,0.0453X0.0552*%
%ADD16R,0.0906X0.0552*%
%ADD17C,0.0780*%
%ADD18R,0.0355X0.0355*%
%ADD19R,0.1640X0.0640*%
D10*
X004428Y004428D03*
X004428Y004625D03*
X004428Y004822D03*
X004428Y005019D03*
X004428Y005216D03*
X004428Y005412D03*
X004428Y005609D03*
X004428Y005806D03*
X006396Y005806D03*
X006396Y005609D03*
X006396Y005412D03*
X006396Y005216D03*
X006396Y005019D03*
X006396Y004822D03*
X006396Y004625D03*
X006396Y004428D03*
D11*
X006101Y004133D03*
X005904Y004133D03*
X005708Y004133D03*
X005511Y004133D03*
X005314Y004133D03*
X005117Y004133D03*
X004920Y004133D03*
X004723Y004133D03*
X004723Y006101D03*
X004920Y006101D03*
X005117Y006101D03*
X005314Y006101D03*
X005511Y006101D03*
X005708Y006101D03*
X005904Y006101D03*
X006101Y006101D03*
D12*
X005412Y005117D03*
D13*
X005885Y003365D03*
X005885Y002696D03*
X006711Y002696D03*
X006711Y003365D03*
X007538Y003365D03*
X007538Y002696D03*
X008365Y002696D03*
X008365Y003365D03*
X010431Y004779D03*
X010431Y005448D03*
X010412Y006852D03*
X010412Y007522D03*
X004448Y003247D03*
X004448Y002578D03*
X003641Y002578D03*
X003641Y003247D03*
X002814Y003129D03*
X002814Y003660D03*
X002814Y004330D03*
X002814Y004861D03*
X002814Y005531D03*
X001928Y006200D03*
X001928Y006869D03*
X001121Y006869D03*
X001121Y006200D03*
X002814Y002460D03*
X002814Y001928D03*
X002814Y001259D03*
X003798Y001160D03*
X003798Y001830D03*
X006239Y001830D03*
X006239Y001160D03*
X007124Y001475D03*
X007124Y000806D03*
D14*
X007873Y004172D03*
X008542Y004172D03*
X008582Y005038D03*
X007912Y005038D03*
G36*
X007089Y006507D02*
X006756Y006174D01*
X006449Y006481D01*
X006782Y006814D01*
X007089Y006507D01*
G37*
G36*
X007562Y006980D02*
X007229Y006647D01*
X006922Y006954D01*
X007255Y007287D01*
X007562Y006980D01*
G37*
X002145Y005531D03*
X001475Y005531D03*
D15*
X004526Y001859D03*
X004526Y001131D03*
X005432Y001131D03*
X005432Y001859D03*
D16*
X009507Y005412D03*
X009507Y006869D03*
D17*
X010180Y008436D03*
X009180Y008536D03*
X008180Y008436D03*
X007180Y008536D03*
X006180Y008436D03*
X005180Y008536D03*
X004180Y008436D03*
X003180Y008536D03*
X002180Y008436D03*
X001180Y008536D03*
X010360Y001912D03*
X010460Y000912D03*
X010460Y002912D03*
D18*
X007851Y001397D03*
X007851Y000806D03*
D19*
X001079Y001463D03*
X001079Y002463D03*
X001079Y003463D03*
M02*
