G75*
G70*
%OFA0B0*%
%FSLAX24Y24*%
%IPPOS*%
%LPD*%
%AMOC8*
5,1,8,0,0,1.08239X$1,22.5*
%
%ADD10C,0.0030*%
D10*
X003853Y002570D02*
X003853Y002816D01*
X003977Y002940D01*
X004100Y002816D01*
X004100Y002570D01*
X004222Y002631D02*
X004283Y002570D01*
X004407Y002570D01*
X004469Y002631D01*
X004407Y002755D02*
X004283Y002755D01*
X004222Y002693D01*
X004222Y002631D01*
X004100Y002755D02*
X003853Y002755D01*
X004222Y002878D02*
X004283Y002940D01*
X004407Y002940D01*
X004469Y002878D01*
X004469Y002816D01*
X004407Y002755D01*
X004590Y002755D02*
X004837Y002755D01*
X004958Y002878D02*
X004958Y002940D01*
X004958Y002878D02*
X005082Y002755D01*
X005082Y002570D01*
X005082Y002755D02*
X005205Y002878D01*
X005205Y002940D01*
X005327Y002878D02*
X005327Y002816D01*
X005388Y002755D01*
X005574Y002755D01*
X005695Y002755D02*
X005942Y002755D01*
X006063Y002878D02*
X006125Y002940D01*
X006248Y002940D01*
X006310Y002878D01*
X006310Y002631D01*
X006248Y002570D01*
X006125Y002570D01*
X006063Y002631D01*
X006432Y002631D02*
X006493Y002570D01*
X006617Y002570D01*
X006679Y002631D01*
X006679Y002878D01*
X006617Y002940D01*
X006493Y002940D01*
X006432Y002878D01*
X006393Y003350D02*
X006208Y003350D01*
X006146Y003411D01*
X006146Y003535D01*
X006208Y003596D01*
X006393Y003596D01*
X006393Y003720D02*
X006393Y003350D01*
X006514Y003350D02*
X006699Y003350D01*
X006761Y003411D01*
X006699Y003473D01*
X006514Y003473D01*
X006514Y003535D02*
X006514Y003350D01*
X006514Y003535D02*
X006576Y003596D01*
X006699Y003596D01*
X006883Y003535D02*
X006883Y003350D01*
X006883Y003535D02*
X006944Y003596D01*
X007129Y003596D01*
X007129Y003350D01*
X007252Y003350D02*
X007252Y003411D01*
X007314Y003411D01*
X007314Y003350D01*
X007252Y003350D01*
X007435Y003411D02*
X007497Y003350D01*
X007558Y003411D01*
X007620Y003350D01*
X007682Y003411D01*
X007682Y003596D01*
X007803Y003596D02*
X007803Y003411D01*
X007865Y003350D01*
X007927Y003411D01*
X007988Y003350D01*
X008050Y003411D01*
X008050Y003596D01*
X008172Y003596D02*
X008172Y003411D01*
X008233Y003350D01*
X008295Y003411D01*
X008357Y003350D01*
X008419Y003411D01*
X008419Y003596D01*
X008844Y003101D02*
X009029Y003101D01*
X009029Y002731D01*
X008844Y002731D01*
X008782Y002792D01*
X008782Y003039D01*
X008844Y003101D01*
X009150Y003101D02*
X009150Y002731D01*
X009397Y003101D01*
X009397Y002731D01*
X009519Y002792D02*
X009519Y002916D01*
X009642Y002916D01*
X009765Y003039D02*
X009765Y002792D01*
X009704Y002731D01*
X009580Y002731D01*
X009519Y002792D01*
X009519Y003039D02*
X009580Y003101D01*
X009704Y003101D01*
X009765Y003039D01*
X009660Y002072D02*
X009537Y002072D01*
X009475Y002010D01*
X009475Y001948D01*
X009537Y001887D01*
X009475Y001825D01*
X009475Y001763D01*
X009537Y001702D01*
X009660Y001702D01*
X009722Y001763D01*
X009598Y001887D02*
X009537Y001887D01*
X009354Y001763D02*
X009292Y001763D01*
X009292Y001702D01*
X009354Y001702D01*
X009354Y001763D01*
X009169Y001763D02*
X009108Y001702D01*
X008984Y001702D01*
X008923Y001763D01*
X008923Y001825D01*
X008984Y001887D01*
X009046Y001887D01*
X008984Y001887D02*
X008923Y001948D01*
X008923Y002010D01*
X008984Y002072D01*
X009108Y002072D01*
X009169Y002010D01*
X008801Y002072D02*
X008801Y001825D01*
X008678Y001702D01*
X008554Y001825D01*
X008554Y002072D01*
X009660Y002072D02*
X009722Y002010D01*
X009735Y001114D02*
X009611Y001114D01*
X009550Y001052D01*
X009550Y000990D01*
X009611Y000929D01*
X009550Y000867D01*
X009550Y000805D01*
X009611Y000744D01*
X009735Y000744D01*
X009797Y000805D01*
X009673Y000929D02*
X009611Y000929D01*
X009428Y000805D02*
X009428Y000744D01*
X009367Y000744D01*
X009367Y000805D01*
X009428Y000805D01*
X009244Y000805D02*
X009182Y000744D01*
X009059Y000744D01*
X008997Y000805D01*
X008997Y000867D01*
X009059Y000929D01*
X009121Y000929D01*
X009059Y000929D02*
X008997Y000990D01*
X008997Y001052D01*
X009059Y001114D01*
X009182Y001114D01*
X009244Y001052D01*
X008876Y001114D02*
X008876Y000867D01*
X008752Y000744D01*
X008629Y000867D01*
X008629Y001114D01*
X009735Y001114D02*
X009797Y001052D01*
X007435Y003411D02*
X007435Y003596D01*
X006024Y003596D02*
X005963Y003596D01*
X005963Y003350D01*
X006024Y003350D02*
X005901Y003350D01*
X005779Y003350D02*
X005655Y003350D01*
X005717Y003350D02*
X005717Y003720D01*
X005779Y003720D01*
X005963Y003720D02*
X005963Y003782D01*
X005533Y003596D02*
X005410Y003596D01*
X005472Y003658D02*
X005472Y003411D01*
X005410Y003350D01*
X005288Y003411D02*
X005288Y003535D01*
X005226Y003596D01*
X005103Y003596D01*
X005041Y003535D01*
X005041Y003473D01*
X005288Y003473D01*
X005288Y003411D02*
X005226Y003350D01*
X005103Y003350D01*
X004920Y003411D02*
X004858Y003350D01*
X004796Y003411D01*
X004734Y003350D01*
X004673Y003411D01*
X004673Y003596D01*
X004551Y003535D02*
X004551Y003411D01*
X004489Y003350D01*
X004366Y003350D01*
X004304Y003411D01*
X004304Y003535D01*
X004366Y003596D01*
X004489Y003596D01*
X004551Y003535D01*
X004183Y003720D02*
X004121Y003720D01*
X004121Y003350D01*
X004183Y003350D02*
X004059Y003350D01*
X003937Y003411D02*
X003937Y003535D01*
X003876Y003596D01*
X003690Y003596D01*
X003690Y003720D02*
X003690Y003350D01*
X003876Y003350D01*
X003937Y003411D01*
X003569Y003411D02*
X003569Y003535D01*
X003507Y003596D01*
X003384Y003596D01*
X003322Y003535D01*
X003322Y003473D01*
X003569Y003473D01*
X003569Y003411D02*
X003507Y003350D01*
X003384Y003350D01*
X003201Y003350D02*
X003201Y003411D01*
X003139Y003411D01*
X003139Y003350D01*
X003201Y003350D01*
X003017Y003411D02*
X003017Y003535D01*
X002955Y003596D01*
X002770Y003596D01*
X002648Y003535D02*
X002648Y003411D01*
X002587Y003350D01*
X002463Y003350D01*
X002401Y003411D01*
X002401Y003535D01*
X002463Y003596D01*
X002587Y003596D01*
X002648Y003535D01*
X002770Y003350D02*
X002955Y003350D01*
X003017Y003411D01*
X002280Y003350D02*
X002280Y003596D01*
X002218Y003596D01*
X002156Y003535D01*
X002095Y003596D01*
X002033Y003535D01*
X002033Y003350D01*
X002156Y003350D02*
X002156Y003535D01*
X004920Y003596D02*
X004920Y003411D01*
X005388Y002940D02*
X005327Y002878D01*
X005388Y002940D02*
X005574Y002940D01*
X005574Y002570D01*
X005388Y002570D01*
X005327Y002631D01*
X005327Y002693D01*
X005388Y002755D01*
X002357Y006101D02*
X002357Y007575D01*
X002298Y007468D02*
X002236Y007468D01*
X002112Y007345D01*
X001927Y007345D01*
X002112Y007345D02*
X002236Y007221D01*
X002298Y007221D01*
X002298Y007100D02*
X001927Y007100D01*
X002298Y006853D01*
X001927Y006853D01*
X001989Y006732D02*
X001927Y006670D01*
X001927Y006485D01*
X002298Y006485D01*
X002298Y006670D01*
X002236Y006732D01*
X001989Y006732D01*
X001927Y006363D02*
X002051Y006240D01*
X002051Y006302D02*
X002051Y006116D01*
X001927Y006116D02*
X002298Y006116D01*
X002298Y006302D01*
X002236Y006363D01*
X002112Y006363D01*
X002051Y006302D01*
X001336Y006470D02*
X001336Y007575D01*
X001276Y007468D02*
X001276Y007221D01*
X001276Y007345D02*
X000906Y007345D01*
X000968Y007100D02*
X000906Y007038D01*
X000906Y006915D01*
X000968Y006853D01*
X001091Y006915D02*
X001091Y007038D01*
X001029Y007100D01*
X000968Y007100D01*
X001091Y006915D02*
X001153Y006853D01*
X001215Y006853D01*
X001276Y006915D01*
X001276Y007038D01*
X001215Y007100D01*
X001215Y006732D02*
X001091Y006732D01*
X001029Y006670D01*
X001029Y006485D01*
X001029Y006608D02*
X000906Y006732D01*
X000906Y006485D02*
X001276Y006485D01*
X001276Y006670D01*
X001215Y006732D01*
X002949Y006732D02*
X003319Y006732D01*
X003319Y006485D02*
X002949Y006732D01*
X002949Y006853D02*
X003319Y007100D01*
X003257Y007221D02*
X003010Y007221D01*
X002949Y007283D01*
X002949Y007406D01*
X003010Y007468D01*
X003257Y007468D02*
X003319Y007406D01*
X003319Y007283D01*
X003257Y007221D01*
X003949Y007138D02*
X003949Y007015D01*
X004010Y006953D01*
X003949Y006831D02*
X003949Y006707D01*
X003949Y006769D02*
X004319Y006769D01*
X004319Y006707D02*
X004319Y006831D01*
X004257Y006953D02*
X004195Y006953D01*
X004134Y007015D01*
X004134Y007138D01*
X004072Y007200D01*
X004010Y007200D01*
X003949Y007138D01*
X004010Y007321D02*
X003949Y007383D01*
X003949Y007506D01*
X004010Y007568D01*
X004257Y007568D01*
X004319Y007506D01*
X004319Y007383D01*
X004257Y007321D01*
X004010Y007321D01*
X004257Y007200D02*
X004319Y007138D01*
X004319Y007015D01*
X004257Y006953D01*
X004319Y006586D02*
X003949Y006586D01*
X004195Y006463D02*
X004319Y006586D01*
X004195Y006463D02*
X004319Y006339D01*
X003949Y006339D01*
X003319Y006485D02*
X002949Y006485D01*
X004949Y006586D02*
X005319Y006586D01*
X005195Y006463D01*
X005319Y006339D01*
X004949Y006339D01*
X005010Y006707D02*
X004949Y006769D01*
X004949Y006893D01*
X005010Y006954D01*
X005257Y006954D01*
X005319Y006893D01*
X005319Y006769D01*
X005257Y006707D01*
X005010Y006707D01*
X005010Y007076D02*
X004949Y007137D01*
X004949Y007261D01*
X005010Y007323D01*
X005072Y007323D01*
X005134Y007261D01*
X005134Y007137D01*
X005195Y007076D01*
X005257Y007076D01*
X005319Y007137D01*
X005319Y007261D01*
X005257Y007323D01*
X005319Y007444D02*
X005319Y007568D01*
X005319Y007506D02*
X004949Y007506D01*
X004949Y007444D02*
X004949Y007568D01*
X005949Y007568D02*
X006319Y007568D01*
X006379Y007675D02*
X006379Y006201D01*
X006319Y006216D02*
X006319Y006402D01*
X006257Y006463D01*
X006134Y006463D01*
X006072Y006402D01*
X006072Y006216D01*
X005949Y006216D02*
X006319Y006216D01*
X006072Y006340D02*
X005949Y006463D01*
X005949Y006585D02*
X005949Y006832D01*
X006010Y006953D02*
X005949Y007015D01*
X005949Y007138D01*
X006010Y007200D01*
X006257Y007200D01*
X006319Y007138D01*
X006319Y007015D01*
X006257Y006953D01*
X006010Y006953D01*
X006072Y007076D02*
X005949Y007200D01*
X005949Y007321D02*
X006319Y007321D01*
X005949Y007568D01*
X006319Y006832D02*
X006319Y006585D01*
X005949Y006585D01*
X006134Y006585D02*
X006134Y006708D01*
X006949Y006646D02*
X007010Y006585D01*
X006949Y006646D02*
X006949Y006770D01*
X007010Y006832D01*
X007072Y006832D01*
X007134Y006770D01*
X007134Y006646D01*
X007195Y006585D01*
X007257Y006585D01*
X007319Y006646D01*
X007319Y006770D01*
X007257Y006832D01*
X007257Y006953D02*
X007010Y006953D01*
X006949Y007015D01*
X006949Y007138D01*
X007010Y007200D01*
X006949Y007321D02*
X007319Y007321D01*
X007257Y007200D02*
X007319Y007138D01*
X007319Y007015D01*
X007257Y006953D01*
X007072Y007321D02*
X007319Y007568D01*
X007134Y007383D02*
X006949Y007568D01*
X007949Y007506D02*
X007949Y007321D01*
X008319Y007321D01*
X008319Y007506D01*
X008257Y007568D01*
X008010Y007568D01*
X007949Y007506D01*
X007949Y007200D02*
X008319Y006953D01*
X008257Y006832D02*
X008134Y006832D01*
X008072Y006770D01*
X008072Y006585D01*
X008072Y006708D02*
X007949Y006832D01*
X007949Y006953D02*
X008319Y007200D01*
X008257Y006832D02*
X008319Y006770D01*
X008319Y006585D01*
X007949Y006585D01*
X008949Y006708D02*
X009319Y006708D01*
X009319Y006585D02*
X009319Y006832D01*
X009319Y006953D02*
X008949Y007200D01*
X008949Y007321D02*
X008949Y007506D01*
X009010Y007568D01*
X009257Y007568D01*
X009319Y007506D01*
X009319Y007321D01*
X008949Y007321D01*
X008949Y006953D02*
X009319Y007200D01*
X010049Y007321D02*
X010049Y007568D01*
X010234Y007445D02*
X010234Y007321D01*
X010172Y007200D02*
X010419Y007200D01*
X010419Y007321D02*
X010049Y007321D01*
X010172Y007200D02*
X010049Y007076D01*
X010172Y006953D01*
X010419Y006953D01*
X010419Y006831D02*
X010419Y006707D01*
X010419Y006769D02*
X010049Y006769D01*
X010049Y006707D02*
X010049Y006831D01*
X010049Y006463D02*
X010419Y006463D01*
X010419Y006586D02*
X010419Y006339D01*
X010357Y006218D02*
X010419Y006156D01*
X010419Y006033D01*
X010357Y005971D01*
X010110Y005971D01*
X010049Y006033D01*
X010049Y006156D01*
X010110Y006218D01*
X010049Y005849D02*
X010295Y005849D01*
X010419Y005726D01*
X010295Y005602D01*
X010049Y005602D01*
X010234Y005602D02*
X010234Y005849D01*
X010419Y007321D02*
X010419Y007568D01*
M02*
